<?xml version="1.0" encoding="utf-8"?>
<!-- Generator: Adobe Illustrator 25.3.1, SVG Export Plug-In . SVG Version: 6.00 Build 0)  -->
<svg version="1.1" xmlns="http://www.w3.org/2000/svg" xmlns:xlink="http://www.w3.org/1999/xlink" x="0px" y="0px"
	 width="130.762px" height="119.859px" viewBox="0 0 130.762 119.859" style="enable-background:new 0 0 130.762 119.859;"
	 xml:space="preserve">
<style type="text/css">
	.st0{fill:none;}
	.st1{fill:#E1D4C2;}
	.st2{fill:#4B383C;}
	.st3{fill:url(#SVGID_1_);}
	.st4{fill:url(#SVGID_2_);}
	.st5{fill:url(#SVGID_3_);}
	.st6{fill:url(#SVGID_4_);}
	.st7{fill:url(#SVGID_5_);}
	.st8{fill:url(#SVGID_6_);}
	.st9{fill:url(#SVGID_7_);}
	.st10{fill:url(#SVGID_8_);}
	.st11{fill:url(#SVGID_9_);}
	.st12{fill:url(#SVGID_10_);}
	.st13{fill:url(#color2);}
	.st14{fill:url(#SVGID_11_);}
	.st15{fill:url(#SVGID_12_);}
	.st16{fill:url(#SVGID_13_);}
	.st17{fill:url(#SVGID_14_);}
	.st18{fill:url(#SVGID_15_);}
	.st19{fill:url(#SVGID_16_);}
	.st20{fill:url(#SVGID_17_);}
	.st21{fill:url(#SVGID_18_);}
	.st22{fill:url(#SVGID_19_);}
	.st23{fill:url(#SVGID_20_);}
	.st24{fill:url(#SVGID_21_);}
	.st25{fill:url(#SVGID_22_);}
	.st26{fill:none;stroke:#4B383C;stroke-miterlimit:10;}
</style>
<pattern  y="119.859" width="8.525" height="8.525" patternUnits="userSpaceOnUse" id="color1" viewBox="0 -8.525 8.525 8.525" style="overflow:visible;">
	<g>
		<rect y="-8.525" class="st0" width="8.525" height="8.525"/>
		<rect y="-8.525" class="st1" width="8.525" height="8.525"/>
	</g>
</pattern>
<pattern  y="119.859" width="9.254" height="9.254" patternUnits="userSpaceOnUse" id="color2" viewBox="0 -9.254 9.254 9.254" style="overflow:visible;">
	<g>
		<rect y="-9.254" class="st0" width="9.254" height="9.254"/>
		<rect y="-9.254" class="st2" width="9.254" height="9.254"/>
	</g>
</pattern>
<g id="item01">
	<g>
		<pattern  id="SVGID_1_" xlink:href="#color2" patternTransform="matrix(1 0 0 -1 8.65 -15735.624)">
		</pattern>
		<path class="st3" d="M19.504,75.142c-0.707,0-1.383-0.235-1.916-0.679c-0.68-0.565-1.069-1.419-1.069-2.343v-7.568
			c-2.154,1.315-3.775,2.207-6.285,3.49c-0.403,0.22-0.944,0.364-1.449,0.378c-0.844,0.032-1.639-0.301-2.266-0.911
			c-0.648-0.631-1.02-1.495-1.02-2.371c0-1.281,0.735-2.424,1.918-2.983c7.112-3.468,10.671-5.775,17.746-10.942
			c0.39-0.294,0.815-0.507,1.247-0.622c1.334-0.358,2.707,0.229,3.333,1.428c0.294,0.506,0.294,1.069,0.294,1.406
			c0,1.228-0.586,2.36-1.608,3.107c-2.227,1.645-3.398,2.479-5.302,3.764V71.45c0,1.694-1.36,3.326-3.032,3.637
			C19.898,75.124,19.7,75.142,19.504,75.142z M19.519,59.124V72.12c0.258-0.025,0.609-0.401,0.609-0.67V58.698l0.664-0.446
			c2.276-1.527,3.426-2.339,5.859-4.136l0.007-0.005c0.24-0.175,0.335-0.375,0.367-0.542c-0.022,0.015-0.046,0.032-0.073,0.052
			C19.697,58.92,16.05,61.283,8.716,64.859C8.524,64.95,8.5,65.051,8.5,65.138c0,0.125,0.143,0.273,0.208,0.284
			c0.029-0.002,0.099-0.02,0.128-0.034c3.293-1.684,4.932-2.624,8.381-4.807L19.519,59.124z"/>
		<pattern  id="SVGID_2_" xlink:href="#color1" patternTransform="matrix(1 0 0 -1 1.3 -15732.7676)">
		</pattern>
		<path class="st4" d="M19.505,74.392c-0.533,0-1.04-0.175-1.437-0.506c-0.508-0.422-0.799-1.065-0.799-1.766v-8.913
			c-2.777,1.734-4.427,2.659-7.376,4.167c-0.315,0.172-0.743,0.286-1.128,0.297c-0.612-0.001-1.241-0.23-1.722-0.699
			c-0.504-0.49-0.793-1.159-0.793-1.834c0-1.003,0.557-1.864,1.489-2.305c7.171-3.498,10.752-5.818,17.868-11.015
			c0.321-0.242,0.66-0.414,0.997-0.503c0.995-0.265,2.013,0.165,2.476,1.05c0.209,0.36,0.209,0.764,0.209,1.059
			c0,0.986-0.475,1.899-1.303,2.503c-2.342,1.73-3.512,2.56-5.607,3.969V71.45c0,1.328-1.108,2.655-2.419,2.899
			C19.807,74.378,19.655,74.392,19.505,74.392z M18.769,60.486V72.12c0,0.257,0.092,0.475,0.258,0.612
			c0.167,0.14,0.402,0.191,0.658,0.143c0.602-0.112,1.193-0.817,1.193-1.425V59.098l0.332-0.223
			c2.288-1.535,3.443-2.351,5.886-4.156l0.003-0.002c0.599-0.437,0.688-0.998,0.688-1.292c0-0.109,0-0.292-0.023-0.336
			c-0.172-0.33-0.522-0.394-0.774-0.324c-0.151,0.04-0.315,0.127-0.49,0.258c-7.205,5.262-10.83,7.611-18.112,11.162
			c-0.408,0.193-0.638,0.539-0.638,0.953c0,0.269,0.127,0.553,0.339,0.759c0.188,0.183,0.409,0.27,0.634,0.274
			c0.15-0.004,0.343-0.055,0.47-0.124c3.302-1.688,4.952-2.635,8.425-4.832L18.769,60.486z"/>
		<path class="st2" d="M27.542,55.323c-2.366,1.748-3.548,2.587-5.914,4.175c0,4.781,0,7.171,0,11.952
			c0,0.997-0.871,1.988-1.806,2.162c-0.995,0.185-1.803-0.495-1.803-1.492c0-4.109,0-6.163,0-10.271
			c-3.387,2.143-5.08,3.126-8.467,4.857c-0.248,0.135-0.56,0.208-0.808,0.215C7.81,66.946,7,66.073,7,65.138
			c0-0.685,0.375-1.304,1.059-1.627c7.196-3.509,10.794-5.832,17.99-11.087c0.251-0.189,0.499-0.318,0.747-0.384
			c0.623-0.167,1.307,0.077,1.618,0.673c0.124,0.214,0.124,0.462,0.124,0.712C28.538,54.11,28.229,54.822,27.542,55.323z"/>
	</g>
	<g>
		<pattern  id="SVGID_3_" xlink:href="#color2" patternTransform="matrix(1 0 0 -1 8.65 -15735.624)">
		</pattern>
		<path class="st5" d="M34.476,67.174c-0.545,0-0.761-0.136-0.967-0.267l-0.7-0.441l-0.042-0.897V53.367
			c0-1.537,1.256-3.234,2.799-3.784c0.972-0.345,1.958-0.241,2.706,0.287c0.701,0.495,1.104,1.301,1.104,2.212v0.202
			c2.981-1.906,5.127-3.368,8.719-5.874c0.281-0.234,0.579-0.367,0.748-0.442c0.987-0.436,2.049-0.384,2.848,0.136
			c0.719,0.468,1.132,1.25,1.132,2.143c0,1.315-0.804,2.751-2.047,3.657c-4.698,3.33-7.132,5.002-11.398,7.723v0.685
			c7.587-2.884,12.175-5.075,20-8.811l0.823-0.393c0.984-0.47,2.001-0.455,2.788,0.041c0.739,0.467,1.164,1.288,1.164,2.254
			c0,1.57-1.144,3.3-2.66,4.023v0c-4.401,2.1-10.632,4.636-16.669,6.784C38.115,66.598,35.597,67.174,34.476,67.174z M36.375,52.513
			c-0.322,0.222-0.609,0.659-0.609,0.854v10.592c0.187-0.047,0.39-0.1,0.61-0.16v-5.818l0.696-0.442
			c4.691-2.979,6.987-4.551,11.952-8.07c0.103-0.075,0.197-0.158,0.281-0.246c-4.161,2.897-6.407,4.404-10.632,7.056l-2.297,1.442
			V52.513z M60.861,54.118l-0.192,0.092c-3.211,1.533-5.883,2.809-8.439,3.979c2.788-1.125,5.546-2.312,7.97-3.468l0,0
			C60.45,54.601,60.687,54.368,60.861,54.118z"/>
		<pattern  id="SVGID_4_" xlink:href="#color1" patternTransform="matrix(1 0 0 -1 1.3 -15732.7676)">
		</pattern>
		<path class="st6" d="M34.506,66.417c-0.37,0-0.499-0.082-0.597-0.144l-0.35-0.221l-0.042-0.484V53.367
			c0-1.224,1.054-2.633,2.301-3.078c0.739-0.263,1.476-0.192,2.022,0.193c0.5,0.353,0.786,0.936,0.786,1.599v1.568
			c3.643-2.304,5.861-3.809,9.927-6.645c0.207-0.179,0.446-0.285,0.594-0.351c0.753-0.333,1.548-0.304,2.134,0.079
			c0.502,0.327,0.791,0.879,0.791,1.515c0,1.067-0.699,2.293-1.739,3.051c-4.805,3.406-7.236,5.073-11.707,7.918v2.181
			c8.235-3.089,12.887-5.31,21.073-9.219l0.823-0.393c0.749-0.356,1.502-0.357,2.065-0.001c0.517,0.326,0.813,0.916,0.813,1.619
			c0,1.279-0.98,2.749-2.232,3.346l0,0c-4.379,2.09-10.584,4.614-16.597,6.754C37.747,65.933,35.409,66.417,34.506,66.417z
			 M36.688,51.632c-0.111,0-0.236,0.023-0.368,0.07c-0.646,0.23-1.304,1.07-1.304,1.665v11.521
			c2.992-0.511,16.391-5.141,25.506-9.49l0,0c0.735-0.351,1.379-1.282,1.379-1.993c0-0.175-0.042-0.306-0.114-0.351
			c-0.095-0.059-0.322-0.055-0.619,0.086l-0.823,0.393c-8.555,4.085-13.268,6.334-22.209,9.648l-1.011,0.375v-5.164l0.348-0.221
			c4.668-2.965,7.086-4.621,11.983-8.091c0.729-0.531,1.114-1.326,1.114-1.833c0-0.187-0.077-0.236-0.11-0.258
			c-0.126-0.083-0.394-0.104-0.704,0.034c-0.057,0.025-0.185,0.082-0.225,0.116l-0.085,0.07c-4.524,3.155-6.773,4.672-11.174,7.435
			l-1.149,0.721v-4.283c0-0.122-0.026-0.286-0.151-0.374C36.902,51.658,36.804,51.632,36.688,51.632z"/>
		<path class="st2" d="M60.845,56.074c-9.91,4.729-26.579,10.491-26.579,9.494c0-4.881,0-7.321,0-12.201
			c0-0.933,0.871-2.039,1.803-2.371c0.998-0.355,1.806,0.153,1.806,1.086c0,1.171,0,1.756,0,2.927
			c4.458-2.798,6.687-4.306,11.144-7.415c0.124-0.118,0.312-0.201,0.436-0.256c0.932-0.412,1.867-0.024,1.867,0.91
			c0,0.809-0.56,1.81-1.431,2.445c-4.806,3.406-7.209,5.06-12.015,8.112c0,1.469,0,2.204,0,3.674
			c9.188-3.406,13.782-5.63,22.969-10.015c0.998-0.476,1.806-0.055,1.806,0.941C62.651,54.401,61.843,55.598,60.845,56.074z"/>
	</g>
	<g>
		<pattern  id="SVGID_5_" xlink:href="#color2" patternTransform="matrix(1 0 0 -1 8.65 -15735.624)">
		</pattern>
		<path class="st7" d="M22.188,93.955c-0.681,0-1.33-0.22-1.849-0.637c-0.688-0.554-1.082-1.403-1.082-2.332v-16.31
			c0-1.641,1.31-3.216,2.983-3.585C31.707,69.014,36.275,67.244,46,63.08h0c0.982-0.42,1.991-0.367,2.765,0.142
			c0.719,0.475,1.131,1.276,1.131,2.2v16.31c0,1.597-1.167,3.301-2.715,3.965c-9.707,4.154-14.621,6.059-24.297,8.183
			C22.651,93.931,22.417,93.955,22.188,93.955z M46.897,65.96c-9.52,4.072-14.434,5.96-24.012,8.062
			c-0.34,0.075-0.628,0.456-0.628,0.655v16.26c9.438-2.068,14.252-3.935,23.744-7.998c0.474-0.203,0.896-0.845,0.896-1.207V65.96z
			 M22.868,90.293V74.447l1.149-0.276c8.189-1.972,12.241-3.521,20.189-6.844l2.079-0.869V82.47l-0.921,0.385
			c-8.113,3.391-12.251,4.973-20.645,6.992L22.868,90.293z M42.927,76.078c0.125,0.052,0.244,0.114,0.358,0.188v-0.517
			C43.172,75.865,43.053,75.976,42.927,76.078z M42.906,71.115c0.132,0.057,0.259,0.125,0.379,0.205v-0.361
			C43.158,71.012,43.032,71.064,42.906,71.115z"/>
		<pattern  id="SVGID_6_" xlink:href="#color1" patternTransform="matrix(1 0 0 -1 1.3 -15732.7676)">
		</pattern>
		<path class="st8" d="M22.188,93.205c-0.511,0-0.996-0.162-1.379-0.472c-0.51-0.41-0.802-1.047-0.802-1.747v-16.31
			c0-1.303,1.052-2.556,2.395-2.853c9.485-2.082,14.326-3.957,23.894-8.055h0c0.746-0.32,1.496-0.292,2.057,0.078
			c0.505,0.333,0.794,0.907,0.794,1.574v16.31c0,1.293-0.993,2.731-2.261,3.275c-9.659,4.135-14.549,6.029-24.163,8.14
			C22.544,93.186,22.365,93.205,22.188,93.205z M46.886,65.148L46.886,65.148c-9.662,4.137-14.552,6.031-24.163,8.141
			c-0.636,0.141-1.217,0.802-1.217,1.388v16.31c0,0.247,0.086,0.453,0.243,0.579c0.164,0.132,0.396,0.173,0.653,0.116
			c9.487-2.083,14.326-3.958,23.893-8.054c0.719-0.309,1.351-1.195,1.351-1.896v-16.31c0-0.11-0.021-0.257-0.12-0.321
			C47.427,65.033,47.206,65.011,46.886,65.148z M23.618,89.341v-4.157l0.574-0.139c6.631-1.597,10.049-2.777,16.954-5.517
			c0.475-0.188,0.958-0.816,0.958-1.245c0-0.023-0.002-0.103-0.034-0.124c-0.045-0.03-0.182-0.048-0.371,0.027
			c-6.975,2.767-10.432,3.961-17.156,5.58l-0.926,0.223v-3.784l0.575-0.139c6.63-1.595,10.048-2.776,16.954-5.516
			c0.484-0.191,0.958-0.84,0.958-1.184c0-0.086-0.021-0.144-0.064-0.173c-0.055-0.037-0.174-0.054-0.341,0.012
			c-6.979,2.769-10.437,3.963-17.156,5.58l-0.925,0.223v-3.971l0.575-0.139c8.242-1.983,12.315-3.541,20.303-6.881l1.039-0.434
			V81.97l-0.461,0.193c-8.073,3.374-12.19,4.947-20.531,6.955L23.618,89.341z M25.118,86.364v1.07
			c7.471-1.841,11.523-3.379,18.917-6.464V69.836c-7.217,3.003-11.308,4.525-18.917,6.383v0.884
			c6.038-1.486,9.452-2.682,16.028-5.291c0.612-0.243,1.246-0.192,1.737,0.143c0.458,0.312,0.721,0.826,0.721,1.413
			c0,0.988-0.873,2.169-1.905,2.578c-6.777,2.688-10.235,3.893-16.581,5.44v0.697c6.043-1.489,9.456-2.684,16.028-5.291
			c0.633-0.253,1.276-0.207,1.767,0.127c0.439,0.298,0.691,0.795,0.691,1.364c0,1.039-0.854,2.224-1.905,2.64
			C34.922,83.611,31.466,84.815,25.118,86.364z"/>
		<path class="st2" d="M46.591,64.459c-9.611,4.115-14.417,5.988-24.028,8.098c-0.995,0.219-1.806,1.186-1.806,2.12
			c0,6.524,0,9.786,0,16.309c0,0.995,0.81,1.646,1.806,1.428c9.611-2.11,14.417-3.982,24.028-8.097
			c0.995-0.426,1.806-1.591,1.806-2.586c0-6.524,0-9.786,0-16.309C48.397,64.487,47.586,64.033,46.591,64.459z M44.785,81.471
			c-8.167,3.413-12.25,4.952-20.417,6.918c0-1.046,0-1.569,0-2.615c6.822-1.642,10.233-2.842,17.055-5.548
			c0.747-0.296,1.431-1.196,1.431-1.943s-0.684-1.091-1.431-0.794c-6.822,2.706-10.233,3.906-17.055,5.548c0-0.897,0-1.345,0-2.241
			c6.822-1.642,10.233-2.842,17.055-5.548c0.747-0.296,1.431-1.197,1.431-1.881c0-0.747-0.684-1.154-1.431-0.858
			c-6.822,2.706-10.233,3.906-17.055,5.548c0-0.971,0-1.457,0-2.428c8.166-1.966,12.25-3.504,20.417-6.918
			C44.785,73.814,44.785,76.366,44.785,81.471z"/>
	</g>
	<g>
		<pattern  id="SVGID_7_" xlink:href="#color2" patternTransform="matrix(1 0 0 -1 8.65 -15735.624)">
		</pattern>
		<path class="st9" d="M17.003,103.14c-0.763,0-1.498-0.267-2.073-0.761c-0.663-0.57-1.028-1.366-1.028-2.243
			c0-1.224,0.728-2.447,1.854-3.119c4.155-2.439,6.167-3.784,10.107-6.59c0.351-0.274,0.777-0.493,1.218-0.615
			c1.383-0.378,2.832,0.221,3.411,1.399c0.236,0.428,0.355,0.893,0.355,1.383c0.001,1.168-0.735,2.523-1.755,3.229
			c-4.037,2.903-6.104,4.302-10.367,6.85l-0.289,0.139c-0.24,0.102-0.54,0.229-0.937,0.29
			C17.334,103.127,17.168,103.14,17.003,103.14z M16.911,100.13c0.02,0,0.073,0.019,0.137,0.006
			c0.022-0.003,0.142-0.055,0.214-0.085l0.014-0.006c4.113-2.461,6.138-3.833,10.077-6.666l0.03-0.021
			c0.181-0.124,0.36-0.417,0.432-0.621c-0.059,0.023-0.109,0.056-0.161,0.097c-4.071,2.899-6.126,4.273-10.369,6.765
			c-0.264,0.157-0.379,0.424-0.381,0.534C16.904,100.131,16.906,100.13,16.911,100.13z"/>
		<pattern  id="SVGID_8_" xlink:href="#color1" patternTransform="matrix(1 0 0 -1 1.3 -15732.7676)">
		</pattern>
		<path class="st10" d="M17.003,102.39c-0.584,0-1.146-0.203-1.584-0.579c-0.494-0.426-0.767-1.021-0.767-1.675
			c0-0.965,0.584-1.937,1.488-2.476c4.175-2.45,6.197-3.803,10.158-6.623c0.298-0.231,0.637-0.406,0.982-0.502
			c1.041-0.284,2.166,0.18,2.562,1.059c0.156,0.26,0.253,0.62,0.253,1c0.001,0.928-0.616,2.051-1.437,2.616
			c-4.021,2.893-6.078,4.284-10.319,6.819l-0.198,0.092c-0.222,0.095-0.453,0.192-0.757,0.239
			C17.258,102.38,17.13,102.39,17.003,102.39z M27.902,91.951c-0.073,0-0.149,0.01-0.223,0.03c-0.155,0.042-0.318,0.13-0.486,0.26
			c-4.025,2.867-6.07,4.233-10.289,6.71c-0.441,0.264-0.752,0.751-0.752,1.185c0,0.217,0.083,0.397,0.245,0.537
			c0.199,0.171,0.484,0.247,0.762,0.205c0.111-0.018,0.212-0.059,0.396-0.137l0.061-0.026c4.167-2.491,6.203-3.87,10.175-6.727
			l0.015-0.011c0.415-0.283,0.792-0.942,0.792-1.383c0-0.115-0.027-0.215-0.085-0.314C28.419,92.081,28.172,91.951,27.902,91.951z"
			/>
		<path class="st2" d="M28.229,94.597c-4.109,2.955-6.164,4.333-10.273,6.789c-0.248,0.103-0.436,0.195-0.684,0.233
			c-0.935,0.142-1.869-0.486-1.869-1.483c0-0.684,0.436-1.422,1.122-1.831c4.084-2.398,6.126-3.749,10.209-6.657
			c0.248-0.192,0.496-0.321,0.747-0.39c0.684-0.188,1.431,0.095,1.679,0.644c0.124,0.213,0.187,0.443,0.187,0.692
			C29.348,93.279,28.849,94.173,28.229,94.597z"/>
	</g>
	<g>
		<pattern  id="SVGID_9_" xlink:href="#color2" patternTransform="matrix(1 0 0 -1 8.65 -15735.624)">
		</pattern>
		<path class="st11" d="M47.071,91.952c-2.007,0-3.783-0.041-6.333-0.146c-1.387-0.011-2.557-1.242-2.557-2.745
			c0-1.61,1.235-3.363,2.812-3.991c0.478-0.19,0.965-0.262,1.455-0.21c3.884,0.151,5.845,0.159,10.101,0.104
			c1.513,0,2.639,1.147,2.639,2.668c0,0.295-0.059,0.648-0.179,1.082l-0.042,0.129c-0.451,1.196-1.42,2.251-2.529,2.752
			c-0.375,0.17-0.674,0.226-0.915,0.271l-0.365,0.047C49.568,91.938,48.278,91.952,47.071,91.952z M41.232,88.823
			c3.748,0.149,5.809,0.156,9.75,0.091c0.159-0.029,0.181-0.035,0.217-0.052c0.335-0.151,0.681-0.509,0.878-0.893
			c-3.905,0.049-5.986,0.035-9.841-0.119l-0.687-1.388l0.555,1.394C41.736,88.003,41.364,88.466,41.232,88.823z M40.812,88.807
			c0.01,0,0.021,0.001,0.03,0.001C40.833,88.808,40.823,88.807,40.812,88.807z"/>
		<pattern  id="SVGID_10_" xlink:href="#color1" patternTransform="matrix(1 0 0 -1 1.3 -15732.7676)">
		</pattern>
		<path class="st12" d="M47.074,91.202c-1.998,0-3.767-0.041-6.304-0.146c-1.002-0.007-1.838-0.902-1.838-1.995
			c0-1.303,1.049-2.781,2.339-3.294c0.363-0.146,0.732-0.2,1.101-0.161c3.948,0.155,5.917,0.164,10.187,0.108
			c1.093,0,1.879,0.807,1.879,1.918c0,0.226-0.049,0.515-0.151,0.882l-0.021,0.064c-0.384,1.018-1.202,1.911-2.136,2.333
			c-0.292,0.133-0.532,0.178-0.743,0.217l-0.24,0.034C49.562,91.188,48.276,91.202,47.074,91.202z M42.156,87.096
			c-0.121,0-0.223,0.021-0.33,0.064c-0.716,0.285-1.394,1.209-1.394,1.9c0,0.268,0.171,0.494,0.375,0.496
			c4.032,0.166,6.105,0.172,10.252,0.106l0.055-0.01c0.174-0.032,0.27-0.051,0.397-0.108c0.56-0.253,1.094-0.839,1.34-1.466
			c0.069-0.255,0.087-0.4,0.087-0.447c0-0.418-0.268-0.418-0.369-0.418c-4.222,0.058-6.306,0.048-10.303-0.113
			C42.227,87.098,42.191,87.096,42.156,87.096z"/>
		<path class="st2" d="M53.564,88.313c-0.312,0.828-0.995,1.577-1.743,1.915c-0.251,0.114-0.436,0.135-0.686,0.184
			c-4.133,0.067-6.2,0.066-10.334-0.105c-0.621-0.005-1.119-0.561-1.119-1.246c0-0.997,0.871-2.202,1.867-2.598
			c0.251-0.1,0.499-0.137,0.747-0.111c4.109,0.164,6.164,0.166,10.273,0.112c0.684,0,1.119,0.484,1.119,1.168
			C53.688,87.82,53.624,88.097,53.564,88.313z"/>
	</g>
</g>
<g id="item02">
	<g>
		<g>
			<path class="st13" d="M80.636,35.299c-0.312,0.639-0.871,1.267-1.431,1.524c-0.248,0.114-0.436,0.138-0.684,0.128
				c-1.694-0.216-2.541-0.317-4.235-0.513c-0.496-0.076-0.808-0.427-0.808-0.986c0-0.809,0.747-1.911,1.555-2.291
				c0.248-0.117,0.499-0.173,0.747-0.164c1.669,0.189,2.503,0.287,4.171,0.497c0.56,0.055,0.871,0.476,0.871,1.035
				C80.823,34.778,80.76,35.057,80.636,35.299z"/>
			<pattern  id="SVGID_11_" xlink:href="#color2" patternTransform="matrix(1 0 0 -1 8.65 -15735.624)">
			</pattern>
			<path class="st14" d="M78.618,38.453c-0.055,0-0.106-0.001-0.156-0.003l-0.131-0.011c-1.687-0.215-2.53-0.316-4.217-0.511
				c-1.301-0.199-2.137-1.191-2.137-2.476c0-1.386,1.085-3.022,2.418-3.648c0.468-0.221,0.968-0.323,1.44-0.306l0.113,0.008
				c1.676,0.19,2.514,0.289,4.189,0.5c1.269,0.124,2.184,1.163,2.184,2.523c0.002,0.484-0.12,0.998-0.345,1.44
				c-0.379,0.771-1.139,1.754-2.146,2.217C79.348,38.408,78.938,38.453,78.618,38.453z M75.168,35.031
				c1.214,0.141,2.035,0.24,3.423,0.417c0.13-0.06,0.357-0.266,0.545-0.544c-1.25-0.155-2.055-0.25-3.419-0.404
				C75.521,34.594,75.312,34.814,75.168,35.031z M79.783,34.984c0.008,0.001,0.015,0.002,0.022,0.002
				C79.798,34.986,79.791,34.985,79.783,34.984z"/>
		</g>
		<g>
			<path class="st13" d="M80.636,35.299c-0.312,0.639-0.871,1.267-1.431,1.524c-0.248,0.114-0.436,0.138-0.684,0.128
				c-1.694-0.216-2.541-0.317-4.235-0.513c-0.496-0.076-0.808-0.427-0.808-0.986c0-0.809,0.747-1.911,1.555-2.291
				c0.248-0.117,0.499-0.173,0.747-0.164c1.669,0.189,2.503,0.287,4.171,0.497c0.56,0.055,0.871,0.476,0.871,1.035
				C80.823,34.778,80.76,35.057,80.636,35.299z"/>
			<pattern  id="SVGID_12_" xlink:href="#color1" patternTransform="matrix(1 0 0 -1 1.3 -15732.7676)">
			</pattern>
			<path class="st15" d="M78.612,37.703c-0.039,0-0.079-0.001-0.12-0.002c-1.757-0.221-2.602-0.322-4.292-0.518
				c-0.905-0.139-1.473-0.816-1.473-1.731c0-1.104,0.91-2.464,1.986-2.97c0.358-0.169,0.729-0.248,1.095-0.235
				c1.729,0.194,2.564,0.292,4.236,0.502c0.905,0.088,1.527,0.804,1.527,1.779c0.001,0.373-0.093,0.766-0.266,1.105
				c-0.408,0.835-1.093,1.551-1.788,1.871C79.217,37.643,78.947,37.703,78.612,37.703z M75.694,33.742
				c-0.068,0-0.201,0.031-0.341,0.097c-0.581,0.273-1.126,1.14-1.126,1.613c0,0.218,0.072,0.229,0.173,0.245
				c1.67,0.192,2.519,0.293,4.216,0.51c0.091-0.002,0.156-0.011,0.276-0.065c0.372-0.171,0.821-0.664,1.069-1.171l0.007-0.014
				c0.065-0.128,0.104-0.287,0.104-0.425c0-0.272-0.112-0.283-0.194-0.291c-1.685-0.212-2.517-0.31-4.182-0.499
				C75.695,33.742,75.695,33.742,75.694,33.742z"/>
		</g>
		<path class="st13" d="M80.636,35.299c-0.312,0.639-0.871,1.267-1.431,1.524c-0.248,0.114-0.436,0.138-0.684,0.128
			c-1.694-0.216-2.541-0.317-4.235-0.513c-0.496-0.076-0.808-0.427-0.808-0.986c0-0.809,0.747-1.911,1.555-2.291
			c0.248-0.117,0.499-0.173,0.747-0.164c1.669,0.189,2.503,0.287,4.171,0.497c0.56,0.055,0.871,0.476,0.871,1.035
			C80.823,34.778,80.76,35.057,80.636,35.299z"/>
	</g>
	<g>
		<g>
			<path class="st13" d="M95.576,27.314c-1.643,1.569-2.465,2.368-4.108,3.988c-0.251,0.223-0.499,0.384-0.747,0.483
				c-0.81,0.324-1.558,0.007-1.558-0.864c0-0.56,0.312-1.249,0.81-1.699c1.618-1.65,2.427-2.465,4.045-4.07
				c0.251-0.282,0.499-0.436,0.747-0.528c0.623-0.231,1.122-0.037,1.37,0.371c0.187,0.182,0.248,0.409,0.248,0.72
				C96.384,26.214,96.075,26.822,95.576,27.314z"/>
			<pattern  id="SVGID_13_" xlink:href="#color2" patternTransform="matrix(1 0 0 -1 8.65 -15735.624)">
			</pattern>
			<path class="st16" d="M90.117,33.411c-0.512,0-0.997-0.141-1.409-0.42c-0.664-0.45-1.045-1.204-1.045-2.069
				c0-1.008,0.5-2.085,1.305-2.812c1.558-1.593,2.37-2.411,3.993-4.021c0.329-0.374,0.77-0.68,1.283-0.87
				c1.188-0.441,2.399-0.1,3.071,0.845c0.567,0.652,0.567,1.396,0.567,1.653c0.002,0.907-0.455,1.88-1.253,2.667l-0.018,0.017
				c-1.637,1.562-2.455,2.358-4.092,3.971c-0.437,0.391-0.836,0.646-1.243,0.808C90.889,33.333,90.495,33.411,90.117,33.411z"/>
		</g>
		<g>
			<path class="st13" d="M95.576,27.314c-1.643,1.569-2.465,2.368-4.108,3.988c-0.251,0.223-0.499,0.384-0.747,0.483
				c-0.81,0.324-1.558,0.007-1.558-0.864c0-0.56,0.312-1.249,0.81-1.699c1.618-1.65,2.427-2.465,4.045-4.07
				c0.251-0.282,0.499-0.436,0.747-0.528c0.623-0.231,1.122-0.037,1.37,0.371c0.187,0.182,0.248,0.409,0.248,0.72
				C96.384,26.214,96.075,26.822,95.576,27.314z"/>
			<pattern  id="SVGID_14_" xlink:href="#color1" patternTransform="matrix(1 0 0 -1 1.3 -15732.7676)">
			</pattern>
			<path class="st17" d="M90.118,32.66c-0.364,0-0.704-0.098-0.99-0.291c-0.461-0.312-0.715-0.827-0.715-1.448
				c0-0.791,0.415-1.676,1.057-2.255c1.589-1.622,2.399-2.438,4.02-4.046c0.276-0.313,0.619-0.552,1.015-0.699
				c0.885-0.327,1.748-0.091,2.222,0.607c0.363,0.399,0.407,0.865,0.407,1.188c0.001,0.698-0.384,1.496-1.03,2.133l-0.009,0.008
				c-1.64,1.565-2.459,2.363-4.1,3.979c-0.349,0.311-0.664,0.514-0.995,0.646C90.701,32.601,90.402,32.66,90.118,32.66z
				 M95.273,25.275c-0.082,0-0.171,0.024-0.248,0.052c-0.111,0.041-0.262,0.115-0.448,0.324c-1.646,1.635-2.454,2.449-4.069,4.096
				c-0.401,0.365-0.595,0.858-0.595,1.174c0,0.082,0.015,0.178,0.057,0.206c0.054,0.038,0.227,0.06,0.473-0.038
				c0.164-0.066,0.342-0.183,0.527-0.348c1.617-1.595,2.439-2.396,4.084-3.965c0.4-0.397,0.579-0.818,0.579-1.06
				c0-0.141-0.018-0.181-0.019-0.183l-0.12-0.149C95.444,25.303,95.363,25.275,95.273,25.275z"/>
		</g>
		<path class="st13" d="M95.576,27.314c-1.643,1.569-2.465,2.368-4.108,3.988c-0.251,0.223-0.499,0.384-0.747,0.483
			c-0.81,0.324-1.558,0.007-1.558-0.864c0-0.56,0.312-1.249,0.81-1.699c1.618-1.65,2.427-2.465,4.045-4.07
			c0.251-0.282,0.499-0.436,0.747-0.528c0.623-0.231,1.122-0.037,1.37,0.371c0.187,0.182,0.248,0.409,0.248,0.72
			C96.384,26.214,96.075,26.822,95.576,27.314z"/>
	</g>
	<g>
		<g>
			<path class="st13" d="M94.829,45.08c-0.995,0.368-1.806-0.129-1.806-1.124c0-3.138,0-4.706,0-7.844
				c-2.439,0.935-3.659,1.432-6.099,2.464c0,4.308,0,6.461,0,10.769c0,0.997-0.81,2.148-1.806,2.579
				c-0.995,0.431-1.806-0.02-1.806-1.016c0-2.664,0-3.997,0-6.661c-0.063,0.153-0.187,0.332-0.311,0.511
				c-0.971,1.277-1.456,1.918-2.426,3.205c-0.312,0.389-0.623,0.657-0.935,0.799c-0.747,0.341-1.37-0.056-1.37-0.803
				c0-0.374,0.187-0.834,0.499-1.289c0.971-1.293,1.456-1.937,2.426-3.221c0.251-0.362,0.562-0.565,0.871-0.703
				c0.623-0.279,0.874-0.14,1.246,0.069c0-1.071,0-1.606,0-2.677c-2.191,0.968-3.287,1.467-5.478,2.482c0,3.361,0,5.042,0,8.404
				c0,0.498-0.248,1.111-0.623,1.659c-1.768,2.266-2.652,3.406-4.42,5.691c-0.372,0.489-0.747,0.791-1.183,0.999
				c-0.932,0.445-1.803,0.116-1.803-0.943c0-0.498,0.248-1.114,0.621-1.666c1.52-1.948,2.279-2.921,3.799-4.859
				c0-3.735,0-5.602,0-9.337c0-0.935,0.808-2.126,1.803-2.592c2.913-1.364,4.37-2.036,7.284-3.323c0-2.614,0-3.921,0-6.536
				c0-0.997,0.81-2.165,1.806-2.595c0.995-0.431,1.806,0.036,1.806,1.033c0,2.614,0,3.921,0,6.536
				c3.162-1.337,4.743-1.975,7.904-3.145c0.935-0.346,1.806,0.154,1.806,1.089c0,3.835,0,5.752,0,9.586
				C96.635,43.616,95.764,44.735,94.829,45.08z"/>
			<pattern  id="SVGID_15_" xlink:href="#color2" patternTransform="matrix(1 0 0 -1 8.65 -15735.624)">
			</pattern>
			<path class="st18" d="M70.83,61.067c-0.493,0-0.961-0.128-1.369-0.386c-0.734-0.464-1.156-1.284-1.156-2.251
				c0-1.05,0.551-2.021,0.879-2.506l0.438-0.567c1.179-1.51,1.911-2.448,3.104-3.97v-8.819c0-1.54,1.146-3.238,2.668-3.95
				c2.664-1.248,4.127-1.923,6.42-2.941v-5.56c0-1.597,1.165-3.305,2.711-3.972c0.972-0.421,1.973-0.372,2.744,0.135
				c0.734,0.482,1.156,1.312,1.156,2.275v4.28c1.941-0.805,3.445-1.393,5.884-2.296c0.937-0.347,1.947-0.239,2.7,0.285
				c0.716,0.499,1.126,1.304,1.126,2.211v9.586c0.002,1.59-1.222,3.289-2.785,3.866c-0.965,0.358-1.949,0.265-2.699-0.258
				c-0.716-0.498-1.126-1.327-1.126-2.273v-5.652c-1.05,0.415-1.95,0.785-3.1,1.268v9.774c0,1.587-1.165,3.288-2.71,3.956
				c-0.978,0.424-1.979,0.375-2.754-0.131c-0.729-0.479-1.148-1.304-1.148-2.262v-2.094c-0.013,0.017-0.025,0.034-0.038,0.051
				c-0.497,0.62-0.982,1.021-1.513,1.262c-0.307,0.14-0.619,0.223-0.927,0.25v0.646c0,1.055-0.555,2.022-0.885,2.506
				c-1.821,2.34-2.706,3.479-4.472,5.762c-0.497,0.653-1.047,1.112-1.723,1.435C71.777,60.954,71.293,61.067,70.83,61.067z
				 M85.424,29.08c-0.347,0.284-0.611,0.749-0.611,1.037v7.513l-0.894,0.395c-2.839,1.254-4.233,1.895-7.255,3.31
				c-0.51,0.239-0.939,0.927-0.939,1.233v9.582c0.099-0.126,0.199-0.256,0.304-0.389c0.218-0.323,0.306-0.644,0.306-0.737v-9.362
				l0.869-0.402c2.201-1.02,3.302-1.521,5.503-2.493l2.106-0.93v7.542l-0.001,0v4.99c0.347-0.282,0.612-0.739,0.612-1.022V37.582
				l0.916-0.387c2.407-1.019,3.633-1.52,6.146-2.484l2.037-0.78v9.625c0.323-0.233,0.61-0.68,0.61-0.933V33.44
				c-3.056,1.127-4.621,1.762-7.626,3.032l-2.084,0.881V29.08z"/>
		</g>
		<g>
			<path class="st13" d="M94.829,45.08c-0.995,0.368-1.806-0.129-1.806-1.124c0-3.138,0-4.706,0-7.844
				c-2.439,0.935-3.659,1.432-6.099,2.464c0,4.308,0,6.461,0,10.769c0,0.997-0.81,2.148-1.806,2.579
				c-0.995,0.431-1.806-0.02-1.806-1.016c0-2.664,0-3.997,0-6.661c-0.063,0.153-0.187,0.332-0.311,0.511
				c-0.971,1.277-1.456,1.918-2.426,3.205c-0.312,0.389-0.623,0.657-0.935,0.799c-0.747,0.341-1.37-0.056-1.37-0.803
				c0-0.374,0.187-0.834,0.499-1.289c0.971-1.293,1.456-1.937,2.426-3.221c0.251-0.362,0.562-0.565,0.871-0.703
				c0.623-0.279,0.874-0.14,1.246,0.069c0-1.071,0-1.606,0-2.677c-2.191,0.968-3.287,1.467-5.478,2.482c0,3.361,0,5.042,0,8.404
				c0,0.498-0.248,1.111-0.623,1.659c-1.768,2.266-2.652,3.406-4.42,5.691c-0.372,0.489-0.747,0.791-1.183,0.999
				c-0.932,0.445-1.803,0.116-1.803-0.943c0-0.498,0.248-1.114,0.621-1.666c1.52-1.948,2.279-2.921,3.799-4.859
				c0-3.735,0-5.602,0-9.337c0-0.935,0.808-2.126,1.803-2.592c2.913-1.364,4.37-2.036,7.284-3.323c0-2.614,0-3.921,0-6.536
				c0-0.997,0.81-2.165,1.806-2.595c0.995-0.431,1.806,0.036,1.806,1.033c0,2.614,0,3.921,0,6.536
				c3.162-1.337,4.743-1.975,7.904-3.145c0.935-0.346,1.806,0.154,1.806,1.089c0,3.835,0,5.752,0,9.586
				C96.635,43.616,95.764,44.735,94.829,45.08z"/>
			<pattern  id="SVGID_16_" xlink:href="#color1" patternTransform="matrix(1 0 0 -1 1.3 -15732.7676)">
			</pattern>
			<path class="st19" d="M70.831,60.317c-0.354,0-0.685-0.09-0.97-0.27c-0.521-0.328-0.807-0.903-0.807-1.617
				c0-0.85,0.47-1.672,0.75-2.086l0.408-0.526c1.229-1.575,1.974-2.528,3.262-4.172v-9.078c0-1.248,0.982-2.684,2.235-3.271
				c2.828-1.325,4.301-2.002,6.853-3.132v-6.047c0-1.294,0.992-2.737,2.259-3.284c0.736-0.319,1.478-0.292,2.034,0.073
				c0.521,0.341,0.818,0.942,0.818,1.648v5.406c2.483-1.042,4.053-1.667,6.894-2.718c0.721-0.266,1.451-0.194,2.012,0.197
				c0.512,0.356,0.805,0.938,0.805,1.596v9.586c0.001,1.275-1.028,2.694-2.295,3.163l0,0c-0.733,0.271-1.467,0.21-2.011-0.17
				c-0.512-0.355-0.805-0.96-0.805-1.658v-6.751c-1.702,0.66-2.839,1.126-4.6,1.869v10.271c0,1.285-0.992,2.72-2.258,3.267
				c-0.743,0.321-1.487,0.295-2.044-0.069c-0.516-0.338-0.811-0.934-0.811-1.635v-4.331c-0.428,0.565-0.826,1.093-1.388,1.837
				c-0.407,0.508-0.803,0.84-1.224,1.031c-0.467,0.213-0.949,0.247-1.366,0.104v1.475c0,0.853-0.473,1.671-0.754,2.083
				c-1.795,2.303-2.679,3.442-4.446,5.727c-0.426,0.559-0.888,0.947-1.452,1.217C71.559,60.228,71.184,60.317,70.831,60.317z
				 M85.826,28.111c-0.106,0-0.244,0.027-0.41,0.099c-0.722,0.312-1.354,1.203-1.354,1.907v7.024l-0.447,0.197
				c-2.845,1.257-4.242,1.899-7.269,3.316c-0.785,0.368-1.372,1.313-1.372,1.913v9.596l-0.16,0.204
				c-1.388,1.77-2.141,2.735-3.419,4.373l-0.379,0.485c-0.273,0.408-0.462,0.885-0.462,1.205c0,0.176,0.04,0.306,0.107,0.349
				c0.093,0.059,0.33,0.058,0.623-0.083c0.346-0.165,0.626-0.404,0.909-0.776c1.771-2.291,2.657-3.431,4.425-5.698
				c0.276-0.406,0.465-0.879,0.465-1.198v-8.883l0.435-0.202c2.196-1.017,3.295-1.518,5.491-2.487l1.053-0.465v5.109l-1.117-0.627
				c-0.292-0.165-0.292-0.163-0.572-0.038c-0.253,0.112-0.426,0.25-0.562,0.446c-0.988,1.308-1.473,1.952-2.443,3.244
				c-0.252,0.369-0.349,0.68-0.349,0.838c0,0.105,0.028,0.158,0.041,0.167c0.023,0.014,0.119,0.022,0.268-0.046
				c0.138-0.063,0.364-0.215,0.662-0.587c0.956-1.27,1.442-1.911,2.414-3.189c0.065-0.096,0.182-0.263,0.213-0.341l1.444,0.284
				v6.661c0,0.109,0.018,0.304,0.134,0.381c0.097,0.063,0.311,0.083,0.625-0.053c0.721-0.312,1.354-1.195,1.354-1.891V38.079
				l0.458-0.194c2.398-1.015,3.62-1.514,6.123-2.474l1.019-0.391v8.935c0,0.144,0.028,0.334,0.161,0.427
				c0.135,0.094,0.371,0.092,0.635-0.006l0,0c0.676-0.25,1.315-1.103,1.314-1.754v-9.587c0-0.167-0.055-0.29-0.161-0.365
				c-0.15-0.104-0.388-0.113-0.635-0.021c-3.19,1.181-4.765,1.818-7.872,3.132l-1.042,0.44v-7.667c0-0.113-0.019-0.314-0.142-0.395
				C85.988,28.131,85.919,28.111,85.826,28.111z M78.584,43.1v2.568c0.722-0.961,1.194-1.589,2.013-2.671
				c0.275-0.398,0.662-0.713,1.165-0.936c0.308-0.138,0.569-0.204,0.801-0.219v-0.552C81.144,41.921,80.135,42.382,78.584,43.1z"/>
		</g>
		<path class="st13" d="M94.829,45.08c-0.995,0.368-1.806-0.129-1.806-1.124c0-3.138,0-4.706,0-7.844
			c-2.439,0.935-3.659,1.432-6.099,2.464c0,4.308,0,6.461,0,10.769c0,0.997-0.81,2.148-1.806,2.579
			c-0.995,0.431-1.806-0.02-1.806-1.016c0-2.664,0-3.997,0-6.661c-0.063,0.153-0.187,0.332-0.311,0.511
			c-0.971,1.277-1.456,1.918-2.426,3.205c-0.312,0.389-0.623,0.657-0.935,0.799c-0.747,0.341-1.37-0.056-1.37-0.803
			c0-0.374,0.187-0.834,0.499-1.289c0.971-1.293,1.456-1.937,2.426-3.221c0.251-0.362,0.562-0.565,0.871-0.703
			c0.623-0.279,0.874-0.14,1.246,0.069c0-1.071,0-1.606,0-2.677c-2.191,0.968-3.287,1.467-5.478,2.482c0,3.361,0,5.042,0,8.404
			c0,0.498-0.248,1.111-0.623,1.659c-1.768,2.266-2.652,3.406-4.42,5.691c-0.372,0.489-0.747,0.791-1.183,0.999
			c-0.932,0.445-1.803,0.116-1.803-0.943c0-0.498,0.248-1.114,0.621-1.666c1.52-1.948,2.279-2.921,3.799-4.859
			c0-3.735,0-5.602,0-9.337c0-0.935,0.808-2.126,1.803-2.592c2.913-1.364,4.37-2.036,7.284-3.323c0-2.614,0-3.921,0-6.536
			c0-0.997,0.81-2.165,1.806-2.595c0.995-0.431,1.806,0.036,1.806,1.033c0,2.614,0,3.921,0,6.536
			c3.162-1.337,4.743-1.975,7.904-3.145c0.935-0.346,1.806,0.154,1.806,1.089c0,3.835,0,5.752,0,9.586
			C96.635,43.616,95.764,44.735,94.829,45.08z"/>
	</g>
	<g>
		<g>
			<path class="st13" d="M92.152,42.923c-0.254,0.383-0.623,0.743-0.995,0.89c-0.312,0.124-0.623,0.123-0.935,0
				c-0.971-0.456-1.456-0.68-2.426-1.121c-0.375-0.154-0.562-0.448-0.562-0.884c0-0.747,0.686-1.598,1.433-1.906
				c0.312-0.129,0.623-0.194,0.871-0.046c0.996,0.441,1.494,0.665,2.49,1.122c0.312,0.128,0.499,0.429,0.499,0.865
				C92.527,42.155,92.377,42.582,92.152,42.923z"/>
			<pattern  id="SVGID_17_" xlink:href="#color2" patternTransform="matrix(1 0 0 -1 8.65 -15735.624)">
			</pattern>
			<path class="st20" d="M90.691,45.406c-0.343,0-0.686-0.065-1.02-0.197c-1.052-0.491-1.534-0.713-2.497-1.151
				c-0.883-0.361-1.44-1.21-1.44-2.25c0-1.322,1.015-2.738,2.36-3.293c0.787-0.324,1.498-0.328,2.11-0.004
				c0.964,0.427,1.466,0.652,2.449,1.104c0.825,0.338,1.373,1.201,1.373,2.228c0,0.602-0.232,1.314-0.622,1.905l-0.002,0.003
				c-0.449,0.678-1.067,1.208-1.695,1.457C91.376,45.34,91.034,45.406,90.691,45.406z M88.909,41.551
				c0.635,0.289,1.083,0.497,1.761,0.815c0.059-0.052,0.144-0.141,0.224-0.259c-0.622-0.283-1.068-0.483-1.723-0.774
				C89.07,41.396,88.981,41.473,88.909,41.551z M91.406,42.341c0.017,0.009,0.034,0.017,0.053,0.024
				C91.44,42.357,91.423,42.35,91.406,42.341z M88.365,41.304c0.01,0.004,0.02,0.009,0.029,0.013
				C88.385,41.312,88.375,41.308,88.365,41.304z"/>
		</g>
		<g>
			<path class="st13" d="M92.152,42.923c-0.254,0.383-0.623,0.743-0.995,0.89c-0.312,0.124-0.623,0.123-0.935,0
				c-0.971-0.456-1.456-0.68-2.426-1.121c-0.375-0.154-0.562-0.448-0.562-0.884c0-0.747,0.686-1.598,1.433-1.906
				c0.312-0.129,0.623-0.194,0.871-0.046c0.996,0.441,1.494,0.665,2.49,1.122c0.312,0.128,0.499,0.429,0.499,0.865
				C92.527,42.155,92.377,42.582,92.152,42.923z"/>
			<pattern  id="SVGID_18_" xlink:href="#color1" patternTransform="matrix(1 0 0 -1 1.3 -15732.7676)">
			</pattern>
			<path class="st21" d="M90.69,44.655c-0.25,0-0.5-0.048-0.743-0.144c-1.012-0.474-1.495-0.697-2.462-1.136
				c-0.627-0.256-1.001-0.832-1.001-1.566c0-1.138,0.964-2.215,1.896-2.6c0.225-0.092,0.905-0.377,1.541,0.003
				c0.92,0.401,1.42,0.625,2.419,1.084c0.576,0.236,0.937,0.818,0.937,1.546c0,0.454-0.191,1.026-0.499,1.493l-0.001,0.001
				c-0.366,0.553-0.856,0.98-1.345,1.174C91.19,44.606,90.94,44.655,90.69,44.655z M89.187,40.529c-0.042,0-0.113,0.016-0.232,0.065
				c-0.49,0.202-0.97,0.803-0.97,1.213c0,0.15,0.022,0.16,0.096,0.19c0.999,0.454,1.486,0.679,2.461,1.136
				c0.09,0.033,0.204,0.035,0.34-0.019c0.165-0.065,0.428-0.278,0.646-0.607c0.172-0.263,0.25-0.547,0.25-0.666
				c0-0.109-0.023-0.161-0.031-0.171c-1.023-0.467-1.52-0.691-2.512-1.13C89.226,40.534,89.211,40.529,89.187,40.529z"/>
		</g>
		<path class="st13" d="M92.152,42.923c-0.254,0.383-0.623,0.743-0.995,0.89c-0.312,0.124-0.623,0.123-0.935,0
			c-0.971-0.456-1.456-0.68-2.426-1.121c-0.375-0.154-0.562-0.448-0.562-0.884c0-0.747,0.686-1.598,1.433-1.906
			c0.312-0.129,0.623-0.194,0.871-0.046c0.996,0.441,1.494,0.665,2.49,1.122c0.312,0.128,0.499,0.429,0.499,0.865
			C92.527,42.155,92.377,42.582,92.152,42.923z"/>
	</g>
	<g>
		<g>
			<path class="st13" d="M123.836,43.3c-0.312,0.009-0.621-0.042-0.932-0.155c-5.204-2.518-7.806-3.494-13.011-5.083
				c-2.589,2.714-3.884,4.123-6.474,7.023c-0.375,0.42-0.81,0.675-1.183,0.789c-0.995,0.303-1.806-0.244-1.806-1.24
				c0-0.498,0.248-1.139,0.623-1.568c2.142-2.444,3.212-3.64,5.354-5.967c-1.221-0.329-1.831-0.483-3.052-0.772
				c-0.56-0.209-0.932-0.719-0.932-1.342c0-0.995,0.808-2.051,1.803-2.334c0.312-0.089,0.56-0.096,0.871,0.006
				c1.718,0.448,2.577,0.691,4.295,1.222c0.996-1.048,1.494-1.564,2.49-2.582c0-1.643,0-2.465,0-4.108
				c-2.839,0.558-4.258,0.904-7.097,1.694c-0.971,1.515-1.456,2.279-2.426,3.819c-0.375,0.611-0.935,1.033-1.494,1.211
				c-1.059,0.336-1.743-0.18-1.743-1.238c0-0.374,0.124-0.789,0.312-1.162c1.046-1.715,1.568-2.567,2.614-4.256
				c0-1.693,0-2.54,0-4.233c0-0.995,0.81-2.055,1.806-2.341s1.806,0.306,1.806,1.301c0,1.245,0,1.868,0,3.113
				c6.175-1.661,9.262-2.269,15.437-2.701c0.995-0.07,1.806,0.707,1.806,1.704c0,0.933-0.81,1.775-1.806,1.844
				c-2.241,0.157-3.362,0.284-5.603,0.62c0,1.992,0,2.988,0,4.979c0,0.499-0.248,1.033-0.684,1.476
				c-0.772,0.77-1.158,1.16-1.93,1.95c4.706,1.624,7.059,2.598,11.765,5.017c0.56,0.302,0.935,0.864,0.935,1.548
				C125.581,42.467,124.771,43.274,123.836,43.3z"/>
			<pattern  id="SVGID_19_" xlink:href="#color2" patternTransform="matrix(1 0 0 -1 8.65 -15735.624)">
			</pattern>
			<path class="st22" d="M101.703,47.457c-0.614,0-1.195-0.182-1.673-0.536c-0.699-0.519-1.101-1.352-1.101-2.287
				c0-0.875,0.381-1.854,0.993-2.555c1.489-1.699,2.462-2.797,3.689-4.148c-0.186-0.045-0.384-0.092-0.603-0.144l-0.179-0.054
				c-1.015-0.378-1.715-1.252-1.874-2.293c-0.846,0.179-1.633,0.037-2.251-0.415c-0.699-0.512-1.084-1.346-1.084-2.349
				c0-0.742,0.256-1.408,0.472-1.835l0.06-0.107c0.971-1.591,1.491-2.441,2.395-3.902v-3.806c0-1.655,1.27-3.316,2.892-3.782
				c0.94-0.272,1.894-0.115,2.612,0.427c0.704,0.53,1.108,1.374,1.108,2.315v1.165c5.032-1.304,8.147-1.851,13.832-2.249
				c0.899-0.066,1.744,0.236,2.394,0.842c0.646,0.603,1.018,1.462,1.018,2.358c0,1.72-1.437,3.218-3.203,3.34
				c-1.712,0.12-2.743,0.22-4.206,0.422v3.681c0,0.9-0.396,1.799-1.116,2.529c-0.095,0.095-0.184,0.184-0.269,0.268
				c3.315,1.198,5.648,2.218,9.721,4.312c1.105,0.596,1.75,1.668,1.75,2.882c0.002,1.75-1.434,3.214-3.199,3.265l0,0
				c-0.516,0.015-1.002-0.068-1.488-0.245l-0.142-0.06c-4.916-2.378-7.466-3.349-11.912-4.727c-2.12,2.23-3.384,3.609-5.801,6.315
				c-0.519,0.581-1.18,1.015-1.862,1.224C102.349,47.408,102.021,47.457,101.703,47.457z M103.928,34.921
				c1.092,0.26,1.708,0.417,2.87,0.729l2.39,0.644l-1.677,1.821c-2.188,2.376-3.25,3.567-5.33,5.939
				c-0.068,0.079-0.126,0.181-0.168,0.28c0.091-0.059,0.191-0.142,0.287-0.249c2.677-2.998,3.954-4.383,6.508-7.059l0.638-0.669
				l0.885,0.27c5.152,1.573,7.789,2.539,13.146,5.127c0.109,0.034,0.213,0.053,0.315,0.045h0.004
				c0.138-0.004,0.285-0.159,0.285-0.265c0-0.046,0-0.15-0.147-0.229c-4.737-2.436-7.041-3.366-11.542-4.919l-2.239-0.772
				l1.656-1.694c0.777-0.795,1.166-1.188,1.942-1.963c0.201-0.205,0.244-0.379,0.244-0.415v-6.271l1.277-0.191
				c2.309-0.346,3.484-0.476,5.72-0.633c0.229-0.016,0.412-0.222,0.412-0.348c0-0.087-0.034-0.138-0.062-0.164
				c-0.036-0.034-0.082-0.045-0.139-0.044c-6.115,0.428-9.147,1.038-15.152,2.654l-1.89,0.508v-4.87
				c-0.356,0.184-0.612,0.581-0.612,0.84v4.66l-0.225,0.363c-1.031,1.666-1.552,2.516-2.572,4.188
				c-0.015,0.031-0.027,0.061-0.039,0.089c0.129-0.096,0.261-0.229,0.369-0.406c0.981-1.559,1.468-2.325,2.441-3.844l0.309-0.482
				l0.552-0.154c2.949-0.82,4.431-1.174,7.21-1.72l1.789-0.352v6.543l-0.428,0.437c-0.99,1.012-1.485,1.525-2.476,2.567
				l-0.641,0.674l-0.889-0.275c-1.68-0.519-2.51-0.755-4.23-1.203l0.244-1.49l-0.349,1.459
				C104.292,34.19,103.97,34.62,103.928,34.921z M100.633,32.792L100.633,32.792L100.633,32.792z M105.133,31.124
				c0.144,0.025,0.287,0.061,0.433,0.109c1.35,0.349,2.194,0.583,3.379,0.941c0.502-0.525,0.904-0.941,1.438-1.488v-1.661
				c-1.542,0.328-2.774,0.636-4.643,1.151C105.519,30.52,105.321,30.828,105.133,31.124z"/>
		</g>
		<g>
			<path class="st13" d="M123.836,43.3c-0.312,0.009-0.621-0.042-0.932-0.155c-5.204-2.518-7.806-3.494-13.011-5.083
				c-2.589,2.714-3.884,4.123-6.474,7.023c-0.375,0.42-0.81,0.675-1.183,0.789c-0.995,0.303-1.806-0.244-1.806-1.24
				c0-0.498,0.248-1.139,0.623-1.568c2.142-2.444,3.212-3.64,5.354-5.967c-1.221-0.329-1.831-0.483-3.052-0.772
				c-0.56-0.209-0.932-0.719-0.932-1.342c0-0.995,0.808-2.051,1.803-2.334c0.312-0.089,0.56-0.096,0.871,0.006
				c1.718,0.448,2.577,0.691,4.295,1.222c0.996-1.048,1.494-1.564,2.49-2.582c0-1.643,0-2.465,0-4.108
				c-2.839,0.558-4.258,0.904-7.097,1.694c-0.971,1.515-1.456,2.279-2.426,3.819c-0.375,0.611-0.935,1.033-1.494,1.211
				c-1.059,0.336-1.743-0.18-1.743-1.238c0-0.374,0.124-0.789,0.312-1.162c1.046-1.715,1.568-2.567,2.614-4.256
				c0-1.693,0-2.54,0-4.233c0-0.995,0.81-2.055,1.806-2.341s1.806,0.306,1.806,1.301c0,1.245,0,1.868,0,3.113
				c6.175-1.661,9.262-2.269,15.437-2.701c0.995-0.07,1.806,0.707,1.806,1.704c0,0.933-0.81,1.775-1.806,1.844
				c-2.241,0.157-3.362,0.284-5.603,0.62c0,1.992,0,2.988,0,4.979c0,0.499-0.248,1.033-0.684,1.476
				c-0.772,0.77-1.158,1.16-1.93,1.95c4.706,1.624,7.059,2.598,11.765,5.017c0.56,0.302,0.935,0.864,0.935,1.548
				C125.581,42.467,124.771,43.274,123.836,43.3z"/>
			<pattern  id="SVGID_20_" xlink:href="#color1" patternTransform="matrix(1 0 0 -1 1.3 -15732.7676)">
			</pattern>
			<path class="st23" d="M101.705,46.706c-0.456,0-0.882-0.132-1.229-0.388c-0.506-0.375-0.797-0.989-0.797-1.684
				c0-0.69,0.317-1.5,0.809-2.062c1.81-2.064,2.854-3.24,4.526-5.066c-0.569-0.147-1.086-0.272-1.832-0.449
				c-0.952-0.349-1.51-1.152-1.51-2.072c0-0.22,0.027-0.44,0.08-0.656c-0.211,0.125-0.433,0.226-0.66,0.298
				c-0.746,0.237-1.438,0.163-1.944-0.209c-0.501-0.367-0.776-0.986-0.776-1.744c0-0.595,0.213-1.143,0.392-1.499
				c1.038-1.706,1.561-2.561,2.534-4.133v-4.02c0-1.338,1.031-2.683,2.349-3.062c0.714-0.206,1.425-0.094,1.954,0.306
				c0.515,0.387,0.81,1.013,0.81,1.716v2.137c5.554-1.471,8.664-2.055,14.634-2.473c0.688-0.054,1.334,0.179,1.831,0.642
				c0.494,0.461,0.778,1.121,0.778,1.81c0,1.334-1.124,2.497-2.505,2.592c-1.975,0.139-3.053,0.25-4.904,0.52v4.332
				c0,0.702-0.319,1.414-0.9,2.002c-0.446,0.446-0.764,0.764-1.1,1.104c3.911,1.374,6.269,2.368,10.743,4.669
				c0.846,0.456,1.343,1.281,1.343,2.215c0.001,1.326-1.131,2.478-2.474,2.515c-0.404,0.016-0.812-0.055-1.208-0.199
				c-5.189-2.507-7.767-3.471-12.532-4.936c-2.325,2.441-3.595,3.823-6.138,6.67c-0.429,0.479-0.969,0.837-1.522,1.007
				C102.202,46.668,101.949,46.706,101.705,46.706z M104.654,33.334c-0.067,0-0.135,0.013-0.224,0.038
				c-0.67,0.191-1.258,0.945-1.258,1.613c0,0.297,0.166,0.536,0.444,0.64c1.141,0.264,1.755,0.419,2.985,0.75l1.194,0.322
				l-0.838,0.911c-2.193,2.382-3.258,3.576-5.343,5.953c-0.248,0.285-0.437,0.747-0.437,1.073c0,0.154,0.033,0.362,0.19,0.479
				c0.147,0.109,0.384,0.125,0.647,0.044c0.137-0.042,0.494-0.182,0.842-0.571c2.67-2.99,3.944-4.372,6.49-7.041l0.319-0.335
				l0.442,0.135c5.137,1.568,7.753,2.528,13.12,5.125c0.15,0.051,0.369,0.093,0.582,0.081h0.002
				c0.531-0.015,1.016-0.499,1.015-1.015c0-0.38-0.197-0.704-0.541-0.889c-4.792-2.463-7.114-3.402-11.653-4.968l-1.12-0.386
				l0.828-0.847c0.775-0.792,1.162-1.184,1.936-1.957c0.29-0.293,0.465-0.648,0.465-0.945v-5.625l0.639-0.096
				c2.285-0.342,3.449-0.471,5.661-0.626c0.592-0.041,1.109-0.553,1.109-1.096c0-0.278-0.107-0.532-0.302-0.713
				c-0.188-0.175-0.44-0.262-0.702-0.243c-6.177,0.433-9.236,1.048-15.294,2.677l-0.945,0.254v-4.092
				c0-0.164-0.037-0.386-0.212-0.518c-0.152-0.115-0.38-0.136-0.638-0.062c-0.673,0.193-1.263,0.951-1.263,1.62v4.446l-0.112,0.182
				c-1.045,1.687-1.565,2.539-2.611,4.252c-0.118,0.239-0.202,0.54-0.202,0.771c0,0.259,0.061,0.459,0.163,0.533
				c0.107,0.079,0.331,0.076,0.604-0.01c0.417-0.133,0.822-0.465,1.081-0.889c0.976-1.549,1.462-2.314,2.434-3.832l0.155-0.241
				l0.275-0.077c2.961-0.824,4.365-1.159,7.153-1.707l0.895-0.176v5.325l-0.214,0.219c-0.993,1.015-1.489,1.53-2.482,2.574
				l-0.321,0.337l-0.444-0.137c-1.691-0.523-2.528-0.761-4.263-1.213C104.804,33.35,104.729,33.334,104.654,33.334z M104.664,31.833
				c0.223,0,0.44,0.037,0.667,0.112c1.561,0.405,2.404,0.642,3.837,1.081c0.731-0.768,1.207-1.26,1.964-2.034v-2.888
				c-2.106,0.427-3.463,0.759-5.87,1.426c-0.638,0.996-1.067,1.671-1.613,2.535c0.121-0.053,0.245-0.098,0.372-0.134
				C104.246,31.865,104.457,31.833,104.664,31.833z"/>
		</g>
		<path class="st13" d="M123.836,43.3c-0.312,0.009-0.621-0.042-0.932-0.155c-5.204-2.518-7.806-3.494-13.011-5.083
			c-2.589,2.714-3.884,4.123-6.474,7.023c-0.375,0.42-0.81,0.675-1.183,0.789c-0.995,0.303-1.806-0.244-1.806-1.24
			c0-0.498,0.248-1.139,0.623-1.568c2.142-2.444,3.212-3.64,5.354-5.967c-1.221-0.329-1.831-0.483-3.052-0.772
			c-0.56-0.209-0.932-0.719-0.932-1.342c0-0.995,0.808-2.051,1.803-2.334c0.312-0.089,0.56-0.096,0.871,0.006
			c1.718,0.448,2.577,0.691,4.295,1.222c0.996-1.048,1.494-1.564,2.49-2.582c0-1.643,0-2.465,0-4.108
			c-2.839,0.558-4.258,0.904-7.097,1.694c-0.971,1.515-1.456,2.279-2.426,3.819c-0.375,0.611-0.935,1.033-1.494,1.211
			c-1.059,0.336-1.743-0.18-1.743-1.238c0-0.374,0.124-0.789,0.312-1.162c1.046-1.715,1.568-2.567,2.614-4.256
			c0-1.693,0-2.54,0-4.233c0-0.995,0.81-2.055,1.806-2.341s1.806,0.306,1.806,1.301c0,1.245,0,1.868,0,3.113
			c6.175-1.661,9.262-2.269,15.437-2.701c0.995-0.07,1.806,0.707,1.806,1.704c0,0.933-0.81,1.775-1.806,1.844
			c-2.241,0.157-3.362,0.284-5.603,0.62c0,1.992,0,2.988,0,4.979c0,0.499-0.248,1.033-0.684,1.476c-0.772,0.77-1.158,1.16-1.93,1.95
			c4.706,1.624,7.059,2.598,11.765,5.017c0.56,0.302,0.935,0.864,0.935,1.548C125.581,42.467,124.771,43.274,123.836,43.3z"/>
	</g>
	<g>
		<g>
			<path class="st13" d="M109.582,63.654c-0.995,0.224-1.806-0.384-1.806-1.38c0-4.806,0-7.208,0-12.014
				c-3.611,0.887-5.416,1.43-9.027,2.647c0,5.652,0,8.478,0,14.13c0,0.871-0.808,2.013-1.803,2.364
				c-0.998,0.352-1.806-0.221-1.806-1.092c0-5.652,0-8.478,0-14.13c-3.436,1.262-5.155,1.958-8.591,3.418c0,3.212,0,4.818,0,8.03
				c0,0.622-0.312,1.251-0.871,1.865c-2.34,2.5-3.51,3.77-5.85,6.332c-0.251,0.301-0.623,0.533-0.935,0.676
				c-0.935,0.429-1.806-0.036-1.806-0.969c0-0.561,0.312-1.266,0.871-1.899c1.993-2.192,2.989-3.281,4.982-5.434
				c0-3.536,0-5.304,0-8.839c0-0.997,0.808-2.165,1.803-2.598c4.159-1.808,6.238-2.667,10.397-4.195c0-1.17,0-1.755,0-2.925
				c0-0.933,0.808-1.979,1.806-2.331c0.995-0.351,1.803,0.125,1.803,1.059c0,1.17,0,1.755,0,2.925
				c4.333-1.46,6.499-2.098,10.832-3.071c0.995-0.224,1.806,0.423,1.806,1.42c0,5.528,0,8.292,0,13.82
				C111.388,62.459,110.577,63.431,109.582,63.654z"/>
			<pattern  id="SVGID_21_" xlink:href="#color2" patternTransform="matrix(1 0 0 -1 8.65 -15735.624)">
			</pattern>
			<path class="st24" d="M78.202,76.159c-0.517,0-1.017-0.138-1.443-0.412c-0.745-0.478-1.172-1.285-1.172-2.216
				c0-0.94,0.454-1.994,1.246-2.892c1.873-2.06,2.868-3.148,4.607-5.029v-8.251c0-1.595,1.163-3.303,2.705-3.973
				c3.869-1.682,5.96-2.552,9.494-3.865v-1.88c0-1.571,1.207-3.181,2.808-3.746c0.98-0.346,1.97-0.242,2.714,0.286
				c0.691,0.489,1.088,1.287,1.088,2.188v0.845c3.125-1.022,5.27-1.616,9.004-2.454c0.921-0.209,1.852-0.008,2.547,0.549
				c0.69,0.552,1.087,1.403,1.087,2.334v13.82c0.002,1.701-1.277,3.273-2.976,3.655c-0.939,0.209-1.873,0.012-2.567-0.545
				c-0.679-0.543-1.067-1.381-1.067-2.299v-10.09c-2.191,0.569-3.77,1.051-6.027,1.802v13.051c0,1.537-1.258,3.232-2.803,3.778
				c-0.955,0.338-1.937,0.226-2.69-0.309c-0.709-0.502-1.116-1.304-1.116-2.198V56.338c-1.952,0.739-3.445,1.346-5.591,2.253v7.036
				c0,0.988-0.425,1.956-1.263,2.875c-2.348,2.51-3.516,3.776-5.851,6.334c-0.438,0.527-1.08,0.874-1.42,1.028
				C79.086,76.062,78.638,76.159,78.202,76.159z M96.64,52.03v15.837c0.355-0.24,0.602-0.652,0.609-0.832V51.83l1.021-0.344
				c3.572-1.204,5.396-1.761,9.149-2.683l1.857-0.457v13.839c0.331-0.089,0.61-0.464,0.61-0.721V47.7
				c-4.346,0.97-6.479,1.607-10.659,3.016l-1.979,0.667v-4.564c-0.366,0.22-0.609,0.633-0.609,0.823v3.972l-0.982,0.361
				c-4.088,1.501-6.161,2.356-10.316,4.163c-0.477,0.208-0.9,0.856-0.9,1.222v9.26c0.047-0.05,0.095-0.101,0.143-0.152
				c0.419-0.46,0.466-0.741,0.466-0.84v-9.022l0.913-0.388c3.452-1.467,5.188-2.17,8.66-3.446L96.64,52.03z"/>
		</g>
		<g>
			<path class="st13" d="M109.582,63.654c-0.995,0.224-1.806-0.384-1.806-1.38c0-4.806,0-7.208,0-12.014
				c-3.611,0.887-5.416,1.43-9.027,2.647c0,5.652,0,8.478,0,14.13c0,0.871-0.808,2.013-1.803,2.364
				c-0.998,0.352-1.806-0.221-1.806-1.092c0-5.652,0-8.478,0-14.13c-3.436,1.262-5.155,1.958-8.591,3.418c0,3.212,0,4.818,0,8.03
				c0,0.622-0.312,1.251-0.871,1.865c-2.34,2.5-3.51,3.77-5.85,6.332c-0.251,0.301-0.623,0.533-0.935,0.676
				c-0.935,0.429-1.806-0.036-1.806-0.969c0-0.561,0.312-1.266,0.871-1.899c1.993-2.192,2.989-3.281,4.982-5.434
				c0-3.536,0-5.304,0-8.839c0-0.997,0.808-2.165,1.803-2.598c4.159-1.808,6.238-2.667,10.397-4.195c0-1.17,0-1.755,0-2.925
				c0-0.933,0.808-1.979,1.806-2.331c0.995-0.351,1.803,0.125,1.803,1.059c0,1.17,0,1.755,0,2.925
				c4.333-1.46,6.499-2.098,10.832-3.071c0.995-0.224,1.806,0.423,1.806,1.42c0,5.528,0,8.292,0,13.82
				C111.388,62.459,110.577,63.431,109.582,63.654z"/>
			<pattern  id="SVGID_22_" xlink:href="#color1" patternTransform="matrix(1 0 0 -1 1.3 -15732.7676)">
			</pattern>
			<path class="st25" d="M78.202,75.409c-0.376,0-0.734-0.099-1.038-0.293c-0.525-0.337-0.827-0.915-0.827-1.585
				c0-0.76,0.386-1.634,1.059-2.396c1.935-2.127,2.931-3.218,4.795-5.231v-8.545c0-1.293,0.99-2.736,2.254-3.286
				c4.03-1.752,6.124-2.619,9.945-4.03v-2.402c0-1.248,1.014-2.582,2.308-3.039c0.748-0.263,1.487-0.194,2.031,0.191
				c0.489,0.347,0.771,0.921,0.771,1.576v1.882c3.665-1.221,5.835-1.844,9.918-2.76c0.7-0.158,1.397-0.011,1.915,0.403
				c0.512,0.409,0.805,1.046,0.805,1.749v13.82c0.001,1.337-1.049,2.622-2.391,2.923c-0.71,0.16-1.417,0.017-1.934-0.398
				c-0.507-0.405-0.786-1.014-0.786-1.713V51.219c-2.906,0.731-4.645,1.261-7.527,2.228v13.591c0,1.224-1.055,2.631-2.303,3.071
				c-0.722,0.254-1.454,0.177-2.008-0.214c-0.508-0.359-0.799-0.938-0.799-1.586V55.256c-2.648,0.985-4.311,1.659-7.091,2.838v7.533
				c0,0.796-0.358,1.594-1.066,2.37c-2.345,2.505-3.513,3.773-5.851,6.333c-0.365,0.438-0.896,0.724-1.178,0.853
				C78.874,75.334,78.531,75.409,78.202,75.409z M97.579,45.945c-0.114,0-0.247,0.024-0.383,0.073
				c-0.696,0.245-1.307,1.004-1.307,1.624v3.448l-0.491,0.181c-4.105,1.508-6.187,2.366-10.356,4.179
				c-0.72,0.313-1.352,1.206-1.352,1.91v9.133l-0.2,0.216c-1.991,2.15-2.986,3.239-4.978,5.429
				c-0.497,0.562-0.676,1.104-0.676,1.395c0,0.155,0.046,0.264,0.137,0.322c0.107,0.068,0.321,0.096,0.606-0.035
				c0.279-0.128,0.53-0.305,0.672-0.475c2.364-2.591,3.536-3.861,5.878-6.364c0.441-0.484,0.669-0.942,0.669-1.353v-8.526
				l0.457-0.194c3.439-1.461,5.168-2.162,8.625-3.432l1.009-0.37v15.204c0,0.111,0.028,0.265,0.166,0.361
				c0.149,0.106,0.384,0.113,0.642,0.024c0.701-0.248,1.302-1.118,1.302-1.657V52.369l0.511-0.172
				c3.55-1.196,5.36-1.749,9.088-2.665l0.929-0.228v12.971c0,0.237,0.077,0.425,0.223,0.542c0.161,0.13,0.4,0.167,0.669,0.106
				c0.661-0.149,1.22-0.817,1.219-1.459V47.643c0-0.248-0.086-0.453-0.242-0.577c-0.162-0.13-0.393-0.167-0.648-0.111
				c-4.372,0.981-6.521,1.623-10.758,3.05l-0.989,0.333v-3.969c0-0.168-0.046-0.287-0.137-0.351
				C97.793,45.969,97.695,45.945,97.579,45.945z"/>
		</g>
		<path class="st13" d="M109.582,63.654c-0.995,0.224-1.806-0.384-1.806-1.38c0-4.806,0-7.208,0-12.014
			c-3.611,0.887-5.416,1.43-9.027,2.647c0,5.652,0,8.478,0,14.13c0,0.871-0.808,2.013-1.803,2.364
			c-0.998,0.352-1.806-0.221-1.806-1.092c0-5.652,0-8.478,0-14.13c-3.436,1.262-5.155,1.958-8.591,3.418c0,3.212,0,4.818,0,8.03
			c0,0.622-0.312,1.251-0.871,1.865c-2.34,2.5-3.51,3.77-5.85,6.332c-0.251,0.301-0.623,0.533-0.935,0.676
			c-0.935,0.429-1.806-0.036-1.806-0.969c0-0.561,0.312-1.266,0.871-1.899c1.993-2.192,2.989-3.281,4.982-5.434
			c0-3.536,0-5.304,0-8.839c0-0.997,0.808-2.165,1.803-2.598c4.159-1.808,6.238-2.667,10.397-4.195c0-1.17,0-1.755,0-2.925
			c0-0.933,0.808-1.979,1.806-2.331c0.995-0.351,1.803,0.125,1.803,1.059c0,1.17,0,1.755,0,2.925
			c4.333-1.46,6.499-2.098,10.832-3.071c0.995-0.224,1.806,0.423,1.806,1.42c0,5.528,0,8.292,0,13.82
			C111.388,62.459,110.577,63.431,109.582,63.654z"/>
	</g>
</g>
<g id="item03_1_">
	<g id="item03">
		<g>
			<path class="st26" d="M130.262,66.519C83.223,77.248,47.517,108.508,0.5,119.232c0-26.357,0-39.535,0-65.892
				C47.517,42.616,83.222,11.356,130.262,0.627C130.262,26.984,130.262,40.162,130.262,66.519z"/>
		</g>
	</g>
</g>
</svg>
