<?xml version="1.0" encoding="utf-8"?>
<!-- Generator: Adobe Illustrator 25.3.1, SVG Export Plug-In . SVG Version: 6.00 Build 0)  -->
<svg version="1.1" xmlns="http://www.w3.org/2000/svg" xmlns:xlink="http://www.w3.org/1999/xlink" x="0px" y="0px"
	 width="243.921px" height="163.279px" viewBox="0 0 243.921 163.279" style="enable-background:new 0 0 243.921 163.279;"
	 xml:space="preserve">
<style type="text/css">
	.st0{fill:none;stroke:#000000;stroke-width:0.4;stroke-linecap:round;stroke-linejoin:round;stroke-miterlimit:10;}
</style>
<g id="item1">
	<path d="M18.506,45.076c-0.072-0.072-0.216-0.072-0.288,0c-0.144,0.072-0.144,0.144-0.072,0.288c0,0,1.584,2.376,2.953,4.969
		l-9.433,5.04V35.499h8.425v2.016c0,0.144,0.072,0.216,0.216,0.216c0.072,0,0.216-0.072,0.216-0.216V11.881
		c0-0.144-0.144-0.216-0.216-0.216c-0.144,0-0.216,0.072-0.216,0.216v0.576h-8.425V0.216C11.665,0.072,11.593,0,11.449,0
		s-0.216,0.072-0.216,0.216v12.241h-8.28v-0.576c0-0.144-0.144-0.216-0.216-0.216c-0.144,0-0.216,0.072-0.216,0.216v30.675
		c0,0.072,0.072,0.144,0.216,0.144c0.072,0,0.216-0.072,0.216-0.144v-7.057h8.28v20.09L0.144,61.493C0,61.493,0,61.637,0,61.781
		c0.072,0.072,0.216,0.144,0.288,0.072l21.026-11.089c1.008,2.017,1.872,4.177,1.656,5.473c-0.072,0.144,0,0.216,0.144,0.288
		c0.144,0,0.216-0.072,0.216-0.216C23.906,53.141,18.722,45.436,18.506,45.076z M11.665,12.889h8.425v22.178h-8.425V12.889z
		 M11.233,35.067h-8.28V12.889h8.28V35.067z"/>
	<path d="M45.004,13.897h-8.712v18.578h8.568c0.072,0,0.216,0.144,0.216,0.216c0,0.144-0.144,0.216-0.216,0.216h-8.568v2.88
		c0,1.512-0.072,2.952-0.216,4.392c0.648,1.008,9.001,14.042,8.425,17.066c-0.072,0.072-0.144,0.144-0.288,0.144
		c-0.072,0-0.144-0.144-0.144-0.216c0.504-2.592-6.409-13.825-8.064-16.345c-1.872,17.209-12.817,26.498-12.889,26.57
		c-0.072,0.072-0.216,0.072-0.288,0s-0.072-0.216,0-0.288c0.144-0.144,13.033-11.089,13.033-31.323v-2.88h-9.145
		c-0.072,0-0.216-0.072-0.216-0.216c0-0.072,0.144-0.216,0.216-0.216h9.145V13.897h-6.049c-1.08,2.88-2.376,5.977-3.816,9.145
		c-0.072,0.144-0.144,0.144-0.288,0.144c-0.072-0.072-0.144-0.216-0.072-0.288c5.185-11.449,8.065-22.034,8.065-22.178
		c0.072-0.072,0.144-0.144,0.288-0.144c0.072,0.072,0.144,0.144,0.144,0.288c0,0.072-1.44,5.4-4.177,12.601h15.049
		c0.072,0,0.216,0.072,0.216,0.216S45.076,13.897,45.004,13.897z"/>
	<path d="M58.913,57.25c-0.062,0-0.125-0.023-0.174-0.07l-8.557-8.255c-0.049-0.047-0.077-0.112-0.077-0.18V32.234
		c0-0.068,0.028-0.133,0.077-0.18l8.557-8.256c0.097-0.094,0.251-0.094,0.348,0l8.557,8.256c0.049,0.047,0.077,0.112,0.077,0.18
		v16.511c0,0.068-0.028,0.133-0.077,0.18l-8.557,8.255C59.038,57.227,58.975,57.25,58.913,57.25z M50.606,48.638l8.307,8.014
		l8.306-8.014V32.34l-8.306-8.014l-8.307,8.014C50.606,32.34,50.606,48.638,50.606,48.638z M67.469,48.744h0.006H67.469z"/>
	<path class="st0" d="M46.048,47.084"/>
</g>
<g id="item2">
	<path d="M96.363,68.102c-0.072-0.072-0.216-0.072-0.36,0c-0.072,0.072-0.072,0.216,0,0.288c0,0.072,2.088,2.665,3.528,5.617
		l-10.369,3.6V58.381h9.289v1.8c0,0.072,0.144,0.216,0.216,0.216c0.144,0,0.216-0.144,0.216-0.216V36.923
		c0-0.072-0.072-0.216-0.216-0.216c-0.072,0-0.216,0.144-0.216,0.216v0.432h-9.289V23.098c0-0.144-0.144-0.216-0.216-0.216
		c-0.144,0-0.216,0.072-0.216,0.216v14.257h-9.289v-0.432c-0.072-0.072-0.144-0.216-0.216-0.216c-0.144,0-0.216,0.144-0.216,0.216
		v25.994c0,0.144,0.072,0.216,0.216,0.216c0.072,0,0.216-0.072,0.216-0.216V58.38h9.289v19.37l-12.241,4.249
		c-0.144,0.072-0.216,0.144-0.144,0.288c0,0.072,0.072,0.144,0.216,0.144h0.072l23.042-8.065c0.792,1.656,1.296,3.312,1.224,4.681
		c-0.072,0.144,0.072,0.288,0.144,0.288h0.072c0.072,0,0.144-0.072,0.216-0.216C101.691,75.015,96.579,68.39,96.363,68.102z
		 M89.162,37.787h9.289v20.162h-9.289V37.787z M88.73,57.949h-9.289V37.787h9.289V57.949z"/>
	<path d="M145.255,81.207l-0.072-0.072c-12.169-8.497-20.378-25.346-21.026-26.714v35.787c0,0.144-0.072,0.216-0.216,0.216
		s-0.216-0.072-0.216-0.216V54.42c-0.72,1.512-8.568,17.858-21.169,28.731c-0.072,0.072-0.144,0.072-0.144,0.072
		c-0.072,0-0.144-0.072-0.144-0.072c-0.144-0.072-0.072-0.216,0-0.288c12.169-10.513,19.946-26.21,21.026-28.443h-17.498
		c-0.144,0-0.216-0.072-0.216-0.216s0.072-0.216,0.216-0.216h17.929V37.427h-12.457c-1.08,2.736-2.52,5.833-4.32,8.785
		c0,0.072-0.072,0.072-0.144,0.072h-0.144c-0.072-0.072-0.144-0.216-0.072-0.288c4.968-8.353,7.272-17.642,7.345-17.786
		c0-0.072,0.144-0.144,0.216-0.144c0.144,0.072,0.216,0.144,0.216,0.288c-0.072,0.072-1.008,3.816-2.952,8.641h12.313V23.026
		c0-0.144,0.072-0.216,0.216-0.216s0.216,0.072,0.216,0.216v13.969h16.346c0.072,0,0.216,0.072,0.216,0.216
		c0,0.072-0.144,0.216-0.216,0.216h-16.346v16.562h18.434c0.144,0,0.216,0.072,0.216,0.216s-0.072,0.216-0.216,0.216h-17.929
		c1.08,2.305,9.073,18.146,20.738,26.354c0.072,0.072,0.144,0.216,0.072,0.288C145.399,81.135,145.327,81.207,145.255,81.207z"/>
</g>
<g id="item3">
	<g>
		<path d="M171.65,93.657c0-0.067,0.034-0.101,0.067-0.134c0.134,0,10.612-1.679,11.485-10.847c0.302-3.056-0.873-6.145-3.157-8.328
			c-2.519-2.384-6.011-3.425-9.873-2.854c-8.395,1.209-12.089,7.925-12.022,12.324c0.034,2.586,1.007,4.735,2.485,5.44
			c0.94,0.437,1.981,0.268,2.989-0.504c3.257-2.586,7.556-10.981,7.992-14.037c0.235-1.545-0.37-2.485-0.403-2.485
			c-0.034-0.067,0-0.134,0.033-0.168c0.067-0.034,0.101,0,0.134,0.033c0.034,0.033,0.672,1.007,0.437,2.653
			c-0.47,3.157-4.701,11.518-8.06,14.138c-1.075,0.84-2.183,1.041-3.224,0.537c-1.545-0.739-2.552-2.922-2.586-5.608
			c-0.067-4.466,3.694-11.283,12.19-12.526c3.929-0.571,7.489,0.47,10.041,2.922c2.317,2.183,3.526,5.373,3.224,8.462
			c-0.873,9.336-11.518,11.048-11.653,11.048C171.684,93.724,171.65,93.69,171.65,93.657z"/>
	</g>
</g>
<g id="item4">
	<path d="M213.276,79.364c0.06,0.148,0.119,0.222,0.239,0.222c0.06-0.074,0.119-0.148,0.119-0.296
		c-0.479-2.588-4.549-6.506-8.02-9.389c7.063-7.097,12.928-15.82,12.988-15.894c0.06-0.074,0.06-0.222,0-0.296s-0.179-0.074-0.239,0
		c-0.059,0.148-5.985,8.872-13.108,15.894c-2.454-1.996-4.548-3.475-4.728-3.622c-0.119-0.074-0.239-0.074-0.239,0.074
		c-0.06,0.074-0.06,0.222,0.059,0.296C200.468,66.427,212.558,75.077,213.276,79.364z"/>
	<path d="M232.011,79.734c-0.12-0.074-0.239-0.074-0.3,0.074c-0.06,0.074,0,0.222,0.06,0.296s4.968,4.361,8.439,8.797l-35.193,3.252
		c16.34-13.381,26.994-27.205,27.053-27.353c0.12-0.074,0.06-0.222,0-0.296c-0.059-0.148-0.179-0.074-0.239,0
		c-0.12,0.148-10.834,14.12-27.353,27.575c-0.06,0-0.12,0.074-0.12,0.148l-9.995,0.887c-0.06,0-0.12,0.148-0.12,0.222
		c0,0.148,0.06,0.222,0.18,0.222l22.815-2.08V91.47l4.34-0.387l0.002,0.028l18.931-1.768c1.676,2.292,2.993,4.51,3.052,6.358
		c0,0.074,0.12,0.222,0.18,0.148c0.119,0,0.179-0.074,0.179-0.222C243.682,89.936,232.489,80.178,232.011,79.734z"/>
	<path d="M207.921,107.889c-0.049,0.07-4.318,14.818-11.306,21.92c-0.049,0.07-0.029,0.19,0.041,0.24
		c0.02,0.12,0.139,0.1,0.246,0.02c6.978-7.162,11.295-21.98,11.344-22.05c0.049-0.07,0.029-0.19-0.1-0.229
		C208.078,107.74,207.959,107.76,207.921,107.889z"/>
	<path d="M229.257,107.789c-0.119-0.061-0.24,0-0.299,0.061c0,0.122,0,0.182,0.059,0.243c0.12,0.061,11.193,14.348,12.57,18.721
		c0,0.122,0.119,0.182,0.179,0.122c0.119,0,0.179-0.122,0.119-0.182C240.51,122.199,229.676,108.093,229.257,107.789z"/>
	<path d="M219.381,96.819v60.934c0.004,0.036,0.068,0.983,0.179,1.312c0.019,0.057,0.179,0.896,0.179,0.688V96.774L219.381,96.819z"
		/>
	<circle cx="219.561" cy="160.902" r="0.217"/>
	<circle cx="219.561" cy="161.982" r="0.217"/>
	<circle cx="219.561" cy="163.062" r="0.217"/>
</g>
</svg>
