<?xml version="1.0" encoding="utf-8"?>
<!-- Generator: Adobe Illustrator 25.3.1, SVG Export Plug-In . SVG Version: 6.00 Build 0)  -->
<svg version="1.1" id="レイヤー_1" xmlns="http://www.w3.org/2000/svg" xmlns:xlink="http://www.w3.org/1999/xlink" x="0px"
	 y="0px" width="169.6px" height="84.7px" viewBox="0 0 169.6 84.7" style="enable-background:new 0 0 169.6 84.7;"
	 xml:space="preserve">
<style type="text/css">
	.st0{fill:#262626;}
</style>
<g id="item01">
	<g>
		<polygon class="st0" points="1.1,9.4 0,2.8 8.1,2.8 8.1,9.4 		"/>
		<polygon class="st0" points="2.4,19.1 1.2,12.6 8,12.6 8.2,19.1 		"/>
		<polygon class="st0" points="5.1,32.2 3.3,22.5 8.5,22.5 8.6,32.2 		"/>
		<polygon class="st0" points="30.8,11.4 23.1,11.4 22.8,16.5 29.9,16.5 29.2,21.1 22.5,21.1 22,28.3 28.8,28.3 28.4,31.6 
			10.6,31.6 10.5,28.3 18,28.3 17.6,21.1 10.5,21.1 10.2,16.5 17.3,16.5 17,11.4 9.4,11.4 9.1,5.5 16.6,5.5 16.3,1.3 23.9,1.3 
			23.6,5.5 31.8,5.5 		"/>
	</g>
</g>
<g id="item02">
	<polygon class="st0" points="69,10.7 65.8,10.7 57.2,19.9 66.3,30.6 61.6,30.6 53.9,23.4 47,30.7 42.3,30.7 50.5,20.2 42.6,12.9 
		51.2,12.9 53.8,15.9 57.8,10.7 39.2,10.7 38.4,5 50.2,5 49.8,0 58.5,0 58.1,5 69.8,5 	"/>
</g>
<g id="item03_1_">
	<g id="レイヤー_3">
		<g id="item03">
			<path class="st0" d="M79,13.2L81.1,30h7.2l1.5-13.2h4.3l-0.3,11.1h-3.1V30h4.9L98,13.2H79L79,13.2z M83.1,27.9V16.8H86l0.2,11.1
				H83.1z"/>
		</g>
	</g>
</g>
<g id="item04_2_">
	<g id="レイヤー_4">
		<g id="item04">
			<path class="st0" d="M118.8,8.3"/>
			<path class="st0" d="M121,11.4"/>
			<path class="st0" d="M122.7,22.2"/>
			<path class="st0" d="M124.7,24.8"/>
			<path class="st0" d="M127.9,22.7"/>
			<g>
				<polyline class="st0" points="118.8,8.3 114.6,10.7 110.5,13.3 109.3,7.6 117,2.2 137.5,2.2 136.5,8.4 111.8,21.1 111.1,16.9 
					116.6,13.8 121,11.4 127.8,7.5 119.6,7.8 118.8,8.3 				"/>
				<polyline class="st0" points="126.2,20.3 122.7,22.2 116.4,25.5 115.9,21.2 126.4,15 139.3,14.9 138.4,21.3 117.7,33.1 
					117,29.8 124.7,24.8 127.9,22.7 132.8,19.5 127.8,19.5 126.2,20.3 				"/>
				<polygon class="st0" points="124.9,24.4 124.9,22.8 123.5,22 122.2,22.8 122.2,24.4 123.5,25.2 				"/>
				<polygon class="st0" points="119.7,11.7 119.7,9.9 118.1,9 116.6,9.9 116.6,11.7 118.1,12.6 				"/>
			</g>
		</g>
	</g>
</g>
<g id="item05_2_">
	<g id="レイヤー_5">
		<g id="item05">
			<polygon class="st0" points="159.3,30.1 153.4,30.1 150.6,11.9 155.4,11.8 155.6,28 159.4,28 			"/>
			<polygon class="st0" points="167.5,27.4 165.1,27.4 165.1,12.2 169.6,12.2 			"/>
		</g>
	</g>
</g>
<g id="item06">
	<g id="レイヤー_6">
		<g>
			<polygon class="st0" points="33.5,54.9 31.2,42.1 35,42.1 36.4,54.9 			"/>
			<polygon class="st0" points="43.9,71.5 41.7,62.5 41.9,71.5 39.3,71.5 38.4,62.7 37.3,71.6 35.1,71.6 35,59.6 33.9,59.6 
				33.3,55.9 37.6,55.9 35.9,40.6 41.2,40.6 41.5,55.9 45.9,55.9 45.9,59.6 44.8,59.6 46.1,71.5 			"/>
			<polygon class="st0" points="45.7,55 42.8,55 42.3,42.2 46.3,42.2 			"/>
			<polygon class="st0" points="58.3,60.4 60.2,60.4 59.6,64.3 57.8,64.3 56.8,71.6 53.7,71.6 54,64.3 46.8,64.3 46.3,60.4 
				54.2,60.4 55,40.7 60.9,40.7 			"/>
			<polygon class="st0" points="52.2,50.2 48.1,50.2 47.9,42.8 52.7,42.8 			"/>
			<polygon class="st0" points="51.8,58.7 48.4,58.7 48.2,52.7 52.1,52.7 			"/>
		</g>
	</g>
</g>
<g id="item07_1_">
	<g id="レイヤー_7">
		<g id="item07">
			<polygon class="st0" points="73.3,69.1 72.9,65.4 75.9,65.4 75,59.1 72.4,59.1 71.9,54.5 74.3,54.5 73.7,49.9 70.7,49.9 
				70.1,43.9 81.6,43.9 81.6,49.9 79.2,49.9 79.3,54.5 81.7,54.4 81.7,59.1 79.3,59.1 79.3,65.4 82.3,65.4 82.4,69.1 			"/>
			<path class="st0" d="M100.1,60.2l2.2-18.8H82l1.3,18.8h6l0.2,2.3h-5.4l0.3,3.9h5.5l0.2,2.4h-6.2l0.2,3.1h14.7l0.3-3.1h-5.5
				l0.1-2.4H99l0.5-3.9H94l0.2-2.3H100.1z M87.2,46.9h2.2l0.1,3h-2.3L87.2,46.9L87.2,46.9z M87.2,56v-2.6h2.4l0.1,2.6H87.2z
				 M94.3,46.9h2.3l-0.1,3h-2.4L94.3,46.9z M93.8,56l0.1-2.6h2.5V56H93.8z"/>
		</g>
	</g>
</g>
<g id="item08_1_">
	<g id="レイヤー_8">
		<g id="item08">
			<path class="st0" d="M140.7,47.8l0.7-5.4h-10.5l0.1-2.3h-6.7l0.1,2.3h-13.8l4,29.6h3.1l-0.9-24.3h7.8l0.6,11.3H118l0.8,12.7h18.6
				l1-12.7h-8.6l0.2-3.1h9.4l0.5-4.3h-9.6l0.2-3.9h10.2V47.8z M134,63v6.1h-11.5V63H134z"/>
		</g>
	</g>
</g>
<g id="item09">
	<g id="レイヤー_9">
		<g>
			<path class="st0" d="M37.2,80h1.6v0.4l0,0c0.3-0.3,0.6-0.5,1-0.5c0.1,0,0.2,0,0.3,0v1.5c-0.1,0-0.3,0-0.4,0
				c-0.3,0-0.6,0.1-0.9,0.3v2.2h-1.6C37.2,83.9,37.2,80,37.2,80z"/>
			<path class="st0" d="M50.8,83.7c-0.4,0.2-1,0.3-1.5,0.3c-1.4,0-2.3-0.8-2.3-2c0-1.3,1-2.1,2.1-2.1c1,0,2,0.6,2,2
				c0,0.1,0,0.3,0,0.4h-2.5c0.2,0.4,0.5,0.6,1,0.6c0.4,0,0.8-0.1,1.3-0.4v1.2H50.8z M49.6,81.5C49.5,81.1,49.2,81,49,81
				c-0.3,0-0.5,0.2-0.5,0.5H49.6z"/>
			<path class="st0" d="M58,82.4c0.6,0.3,1.3,0.5,1.6,0.5c0.2,0,0.3,0,0.3-0.2s-0.4-0.2-0.9-0.3c-0.8-0.2-1.1-0.6-1.1-1.2
				c0-0.8,0.8-1.4,1.8-1.4c0.5,0,1.1,0.1,1.6,0.3v1.2C60.7,81.1,60,81,59.7,81c-0.2,0-0.3,0.1-0.3,0.2c0,0.2,0.3,0.2,0.9,0.3
				c0.8,0.2,1.1,0.6,1.1,1.2c0,0.9-0.8,1.4-1.9,1.4c-0.5,0-1.1-0.1-1.6-0.3C58,83.7,58,82.4,58,82.4z"/>
			<path class="st0" d="M71.3,83.8c-0.2,0.1-0.6,0.2-1,0.2c-0.5,0-0.9-0.2-1.2-0.4c-0.2-0.2-0.4-0.6-0.4-1.2v-1.1h-0.6V80h0.6v-1
				l1.6-0.3V80h0.9v1.2h-0.9v1c0,0.3,0.1,0.5,0.4,0.5c0.2,0,0.4-0.1,0.6-0.1V83.8z"/>
			<path class="st0" d="M80.5,83.7c-0.3,0.2-0.6,0.3-1,0.3s-0.7-0.1-0.9-0.2c-0.3-0.2-0.5-0.5-0.5-0.9s0.2-0.8,0.5-0.9
				c0.3-0.2,0.7-0.3,1.1-0.3c0.2,0,0.4,0,0.6,0.1v-0.1c0-0.1,0-0.2-0.1-0.3c-0.1-0.1-0.3-0.1-0.5-0.1c-0.4,0-0.8,0.1-1.1,0.3v-1.2
				c0.3-0.2,0.9-0.3,1.5-0.3s1.1,0.1,1.4,0.4c0.4,0.3,0.5,0.6,0.5,1.1v1.1c0,0.2,0.1,0.3,0.2,0.3s0.1,0,0.2,0v1.1
				c-0.2,0.1-0.4,0.2-0.7,0.2C81.2,84,80.8,83.9,80.5,83.7L80.5,83.7L80.5,83.7z M80.3,82.4c-0.1,0-0.2,0-0.2,0
				c-0.2,0-0.4,0.1-0.4,0.3c0,0.2,0.2,0.3,0.4,0.3c0.1,0,0.2,0,0.3-0.1L80.3,82.4L80.3,82.4z"/>
			<path class="st0" d="M91.7,83.6C91.4,83.8,91,84,90.6,84s-0.8-0.2-1-0.4c-0.3-0.3-0.4-0.6-0.4-1.2V80h1.6v2.2
				c0,0.2,0,0.3,0.1,0.4s0.2,0.1,0.3,0.1c0.2,0,0.4-0.1,0.5-0.2V80h1.6v3.9h-1.6V83.6L91.7,83.6z"/>
			<path class="st0" d="M100.5,80h1.6v0.4l0,0c0.3-0.3,0.6-0.5,1-0.5c0.1,0,0.2,0,0.3,0v1.5c-0.1,0-0.3,0-0.4,0
				c-0.3,0-0.6,0.1-0.9,0.3v2.2h-1.6V80z"/>
			<path class="st0" d="M112.6,83.7c-0.3,0.2-0.6,0.3-1,0.3s-0.7-0.1-0.9-0.2c-0.3-0.2-0.5-0.5-0.5-0.9s0.2-0.8,0.5-0.9
				c0.3-0.2,0.7-0.3,1.1-0.3c0.2,0,0.4,0,0.6,0.1v-0.1c0-0.1,0-0.2-0.1-0.3c-0.1-0.1-0.3-0.1-0.5-0.1c-0.4,0-0.8,0.1-1.1,0.3v-1.2
				c0.3-0.2,0.9-0.3,1.5-0.3s1.1,0.1,1.4,0.4c0.4,0.3,0.5,0.6,0.5,1.1v1.1c0,0.2,0.1,0.3,0.2,0.3s0.1,0,0.2,0v1.1
				c-0.2,0.1-0.4,0.2-0.7,0.2C113.2,84,112.8,83.9,112.6,83.7L112.6,83.7L112.6,83.7z M112.3,82.4c-0.1,0-0.2,0-0.2,0
				c-0.2,0-0.4,0.1-0.4,0.3c0,0.2,0.2,0.3,0.4,0.3c0.1,0,0.2,0,0.3-0.1L112.3,82.4L112.3,82.4z"/>
			<path class="st0" d="M121.2,80h1.6v0.3l0,0c0.3-0.2,0.7-0.4,1.1-0.4s0.8,0.2,1,0.4c0.3,0.2,0.4,0.6,0.4,1.2V84h-1.6v-2.2
				c0-0.2,0-0.3-0.1-0.4s-0.2-0.1-0.3-0.1c-0.2,0-0.4,0.1-0.5,0.2V84h-1.6V80z"/>
			<path class="st0" d="M135.3,83.8c-0.2,0.1-0.6,0.2-1,0.2c-0.5,0-0.9-0.2-1.2-0.4c-0.2-0.2-0.4-0.6-0.4-1.2v-1.1h-0.6V80h0.6v-1
				l1.6-0.3V80h0.9v1.2h-0.9v1c0,0.3,0.1,0.5,0.4,0.5c0.2,0,0.4-0.1,0.6-0.1L135.3,83.8L135.3,83.8z"/>
		</g>
	</g>
</g>
<g id="item10">
	<g id="レイヤー_10">
		<path class="st0" d="M7.8,66.2l10.4-22.7c0,0,2.3,2,2.5,4.7c0.1,2.7-8.5,18.4-8.5,18.4L10.3,66L4.7,81.8c-0.3,1-1.2,1.7-2.2,1.8
			c-0.7,0-1.3-0.3-1.3-1.6C1.3,79.2,7.8,66.2,7.8,66.2z"/>
		<path class="st0" d="M149.6,44.6l2.7,13.4l2.3-0.4l7.7,25.7c0,0,1.3,2.9,3.5,0.6c0.7-0.8-7.1-19-7.4-20c-0.3-1-2.3-6.7-2.3-6.7
			l1.9-1l-5.6-12.5l-0.3,0.1l2.5,6.5l-0.4,0.2l-2.7-6.5l-0.2,0.1l2.2,6.6l-0.6,0.2l-2.2-6.6l-0.2,0.1l1.7,6.8l-0.5,0.2l-1.7-6.8
			H149.6z"/>
	</g>
</g>
</svg>
