<?xml version="1.0" encoding="utf-8"?>
<!-- Generator: Adobe Illustrator 25.3.1, SVG Export Plug-In . SVG Version: 6.00 Build 0)  -->
<svg version="1.1" id="レイヤー_1" xmlns="http://www.w3.org/2000/svg" xmlns:xlink="http://www.w3.org/1999/xlink" x="0px"
	 y="0px" width="172.336px" height="75.862px" viewBox="0 0 172.336 75.862" style="enable-background:new 0 0 172.336 75.862;"
	 xml:space="preserve">
<style type="text/css">
	.st0{fill:#262626;}
</style>
<g id="item01">
	<path class="st0" d="M51.557,35.47c1.224,0,2.508-1.318,2.508-2.233c0-1.872-1.285-2.743-2.508-2.743h-17.21
		c0.144-1.296,0.216-7.842,0.216-7.842h10.801c1.224,0,2.994-1.341,2.592-3.096c-0.27-1.177-1.368-2.096-2.592-2.096H34.563V8.179
		c0-1.296-1.296-2.736-3.24-2.736s-3.24,1.44-3.24,2.736v9.281H12.961c0.504-1.872,1.368-6.185,1.368-8.057
		c0-1.152-1.296-2.736-3.312-2.736c-2.088,0-3.24,1.296-3.384,2.448C6.985,15.812,3.96,23.661,0.36,28.989
		C0.144,29.349,0,29.781,0,30.213c0,1.512,1.296,3.168,3.457,3.168c1.152,0,2.088-0.504,2.448-1.152
		c1.8-2.592,3.528-5.905,4.968-9.577h17.209c0,0-0.072,6.545-0.288,7.842H11.377c-1.152,0-2.41,0.623-2.41,2.496
		c0,1.8,1.258,2.481,2.41,2.481h14.905h1.144C26.182,47.24,16.23,56.427,4.173,56.427l2,4.784c14.736,0,26.793-11.291,28.037-25.741
		h2.225H51.557z"/>
	<path class="st0" d="M39.721,42.043h-4.785c0,11.292,12.918,20.095,23.923,20.095v-4.785
		C50.246,57.353,39.721,50.272,39.721,42.043z"/>
</g>
<g id="item02">
	<path class="st0" d="M78.647,3.589C76.38,1.322,73.264,0,70.053,0C63.348,0,57.87,5.477,57.87,12.277v28.614
		c0,3.305,1.228,6.327,3.494,8.688c2.362,2.266,5.383,3.494,8.689,3.494c6.705,0,12.183-5.477,12.183-12.182V12.277
		C82.235,8.971,81.007,5.949,78.647,3.589z M77.513,40.891c0,4.155-3.306,7.46-7.46,7.46c-1.983,0-3.872-0.756-5.288-2.172
		c-1.417-1.417-2.172-3.305-2.172-5.288v-5.855h14.921L77.513,40.891L77.513,40.891z M77.513,30.314H62.592V22.57h14.921V30.314z
		 M77.513,17.848H62.592v-5.571c0-4.155,3.306-7.555,7.46-7.555c1.983,0,3.872,0.85,5.288,2.266
		c1.416,1.417,2.172,3.306,2.172,5.289L77.513,17.848L77.513,17.848z"/>
	<path class="st0" d="M66.774,57.936L66.774,57.936c0.961,0.961,0.961,2.52,0,3.481l0,0c-0.952,0.952-2.491,0.962-3.456,0.024l0,0
		c-0.994-0.967-0.994-2.563,0-3.53l0,0C64.283,56.974,65.822,56.985,66.774,57.936z"/>
	
		<rect x="73.791" y="57.518" transform="matrix(0.707 -0.7072 0.7072 0.707 -19.8486 70.9505)" class="st0" width="3.824" height="3.824"/>
	<g>
		<path class="st0" d="M100.421,57.645c4.317-8.634,7.253-20.289,8.634-34.88h2.59c3.366-1.036,3.366-4.071,0-5.194h-19.34
			c0.95-3.368,1.986-6.202,3.022-12.677c-1.382-2.677-3.368-3.194-5.958-1.295c0.087,12.778-3.366,25.296-10.447,37.47
			c4.836-4.23,7.771-7.253,8.634-8.979c1.122,10.36,3.194,17.562,6.733,24.641c-3.54,6.648-31.287,15.619-34.049,16.397
			c6.884-0.827,27.093-3.953,36.933-10.99c5.266,8.374,13.951,13.465,25.608,13.724C112.94,73.444,105.429,67.314,100.421,57.645z
			 M90.925,24.578c0.259-0.691,0.431-1.295,0.604-1.814h13.037c-1.555,12.087-3.885,21.671-6.907,28.923
			C94.81,45.04,92.565,36.06,90.925,24.578z"/>
		<path class="st0" d="M68.428,73.084l0.087,0.087C68.514,73.084,68.514,73.084,68.428,73.084z"/>
	</g>
</g>
<g id="item03">
	<path class="st0" d="M167.623,17.485h-43.858c-2.639,0-4.713,2.074-4.713,4.713v45.429c0,2.577,2.073,4.65,4.713,4.65h43.858
		c2.639,0,4.713-2.073,4.713-4.65V22.198C172.336,19.559,170.262,17.485,167.623,17.485z M167.121,66.056
		c0,0.879-0.691,1.508-1.571,1.508h-39.712c-0.879,0-1.571-0.628-1.571-1.508V23.768c0-0.879,0.691-1.508,1.571-1.508h39.712
		c0.88,0,1.571,0.628,1.571,1.508V66.056z"/>
	<path class="st0" d="M137.513,25.425h5.977v-1.801c1.08-2.304,2.232-2.304,3.456,0v1.801h7.129c2.521,0.72,2.521,3.512,0,4.232
		h-7.129v3.4h16.562c2.521,0.792,2.521,3.512,0,4.304h-35.354c-2.881-0.792-2.881-3.512,0-4.304h15.337v-3.4h-5.977
		C134.56,28.936,134.56,26.144,137.513,25.425z"/>
	<path class="st0" d="M145.694,52.41c-4.369,0-7.924-3.555-7.924-7.924s3.555-7.924,7.924-7.924s7.924,3.555,7.924,7.924
		S150.063,52.41,145.694,52.41z M145.694,39.987c-2.48,0-4.498,2.019-4.498,4.499s2.018,4.498,4.498,4.498s4.498-2.018,4.498-4.498
		S148.175,39.987,145.694,39.987z"/>
	<path class="st0" d="M155.287,56.481"/>
	<path class="st0" d="M155.287,56.481c-2.664-1.584-5.185-2.305-7.705-2.305v-2.088c-2.118,0.538-3.816,0-3.816,0
		c-3.096,4.248-8.064,7.705-14.905,10.441c-1.584,2.231-1.151,3.384,1.44,3.6c7.633-3.384,12.241-7.345,13.897-11.881v13.249
		c1.08,2.376,2.232,2.376,3.384,0V55.833c3.673,1.009,7.633,3.744,11.953,8.209c2.232,0.576,3.024-0.288,2.305-2.521
		C159.823,59.649,155.287,56.481,155.287,56.481"/>
	<polygon class="st0" points="158.206,50.252 161.632,53.678 158.206,57.201 154.683,53.678 	"/>
</g>
</svg>
