<?xml version="1.0" encoding="utf-8"?>
<!-- Generator: Adobe Illustrator 25.3.1, SVG Export Plug-In . SVG Version: 6.00 Build 0)  -->
<svg version="1.1" xmlns="http://www.w3.org/2000/svg" xmlns:xlink="http://www.w3.org/1999/xlink" x="0px" y="0px" width="226.4px"
	 height="96.3px" viewBox="0 0 226.4 96.3" style="enable-background:new 0 0 226.4 96.3;" xml:space="preserve">
<style type="text/css">
	.st0{fill:none;}
</style>
<g id="item01">
	<path d="M34.5,61.7c0.4-0.1,0.7-0.3,0.9-0.5s0.3-0.5,0.3-0.8c-0.9-0.5-1.8-1-2.9-1.5c-1-0.5-1.9-1-2.6-1.3s-1.1-0.6-1.2-0.6
		l-1.9,4.9l-6,1.6v1.7L34.5,61.7z"/>
	<path d="M21.3,82.8c3,1.5,6.4,3.5,10.3,6.1c2.4,0.9,3.7,0.5,4-1.3s-0.2-2.9-1.6-3.5c-3.9-1.8-7.9-3.5-12.8-5.2"/>
	<path d="M15.2,49.3v27v1v3.2v0.9v6.8c-0.1,3.4-1.7,5.2-4.7,5.2c-2.3,0-4.2-0.5-5.6-1.6s-2.2-2.9-2.2-5.6c0-2.3,1-4.1,3-5.4
		s4.4-1.6,7.3-1.1c0.4,0.1,0.7,0.2,1.1,0.3v-3c-0.4-0.1-0.7-0.2-1.1-0.2c-3.1-0.5-6,0.1-8.7,1.9c-2.7,1.7-4.2,4.1-4.3,7.3
		c-0.1,3,0.8,5.5,2.8,7.4s4.5,2.9,7.7,2.9c6.4-0.1,9.6-2.8,9.6-8.1v-5.5v-3.9l0.1-15.1v-1.7V51.8c0.8-0.1,1.4-0.3,1.7-0.6
		s0.5-0.7,0.5-1L15.2,49.3z"/>
	<path d="M20,63.4c0-1,0-1,0-2C20,62.4,20,62.4,20,63.4z"/>
</g>
<g id="item02">
	<path d="M82.8,48.9c-0.3-0.5-0.8-1-1.4-1.5c-0.6-0.5-1.4-1-2.4-1.5c-1-0.5-2.1-0.9-3.5-1.3L75,45.4c1.2,0.8,2.1,1.6,2.8,2.2
		c0.7,0.7,1.3,1.3,1.8,1.9c0.5,0.6,0.9,1.1,1.3,1.6s0.7,0.7,1.1,0.7c0.4,0,0.8-0.1,1-0.3c0.2-0.2,0.3-0.6,0.3-1
		C83.3,49.9,83.1,49.4,82.8,48.9z"/>
	<path d="M73.4,49.9c0.7,0.8,1.3,1.5,1.8,2.2c0.4,0.6,0.8,1.1,1.2,1.5s0.7,0.7,1.1,0.7c0.4,0,0.7-0.2,1-0.5c0.2-0.3,0.4-0.6,0.4-1.1
		c0-0.5-0.1-1-0.3-1.4c-0.3-0.5-0.7-0.9-1.3-1.5c-0.7-0.6-1.5-1.2-2.5-1.7s-2.1-1-3.4-1.5l-0.6,0.8C71.8,48.3,72.7,49.1,73.4,49.9z"
		/>
	<path d="M71.1,61.8c-2.1,0.3-5.1,1.3-8.9,3.1l0.2,1.1c3.4-0.4,6.4-0.5,8.9-0.4s4.6,0.4,6.3,0.8c0.6,0,1-0.1,1.4-0.3
		c0.4-0.3,0.6-0.6,0.8-1.1c0.1-0.8,0-1.4-0.5-1.9c-0.5-0.5-1.3-0.8-2.4-1C75.2,61.6,73.2,61.6,71.1,61.8z"/>
	<polyline points="50.4,56.8 42.9,58.6 42,57.2 50.7,55 	"/>
	<path d="M51.5,55.5c-1.5,11.6-3.5,22-6.3,31.5l0.7,0.5c0.8,0.6,1.6,0.9,2.5,1.1c0.9,0.2,1.4,0.1,1.6-0.1
		c2.5-10.3,4.4-21.1,5.9-32.2c-0.1,0-0.1,0-0.2,0c0.1,0,0.2,0,0.2,0c0-0.3,0.1-0.5,0.1-0.8l0.2-1.6c0.3-2.1,0.5-4.2,0.7-6.3
		c0.8-0.1,1.4-0.3,1.7-0.6c0.3-0.3,0.5-0.6,0.6-1l-6.6-1c-0.3,3-0.6,6-1,8.9L51.5,55.5z"/>
	<path d="M63,79c-2.3-1.3-2.7-4.1-1.2-8.6L60.4,70c-2.8,5.5-2.8,9.5-0.2,12s7.1,3.2,13.3,2l7.5-1.4c0.1-2.2,0.7-4.1,1.7-5.8
		l-5.4,1.4C70,80,65.2,80.2,63,79z"/>
	<path d="M69.3,52.4c0.4-0.1,0.7-0.3,0.9-0.5c0.2-0.2,0.3-0.5,0.3-0.8c-0.8-0.5-1.7-1-2.7-1.4s-1.8-0.9-2.5-1.2
		c-0.7-0.3-1.1-0.5-1.1-0.5l-1.7,4.6l-5.6,1.5l-0.3,1.6L69.3,52.4z"/>
</g>
<g id="item03">
	<path d="M102.2,47.1c-1.6,11.1-3.8,23.5-6.6,33.4c-0.3,0.2-0.8,0.2-1.7-0.2c-0.9-0.3-1.7-0.8-2.4-1.5l-0.6-0.7
		c2.8-8.3,5-19.8,6.6-30.6l0.3-2c0.5-3.8,0.9-7.7,1.3-11.8l7,1.1c-0.1,0.4-0.3,0.7-0.6,1c-0.3,0.3-0.9,0.5-1.8,0.6
		c-0.3,2.9-0.7,5.8-1.1,8.7L102.2,47.1z"/>
	<path d="M96,47.3c-2.2,0.7-4.1,1.5-6.2,2.7l-1.5-2.6c1.9-0.5,4.6-1.3,8.1-2.2"/>
	<path d="M104.5,43.1c7.2-2.1,12.1-1.6,14.7,1.5c2.7,3.2,2.2,11,2.2,17.5s-1,7.7-2.3,9.7c-0.8,1.1-1.8,2.1-3,2.7s-2.7,1.2-4.5,1.5
		c-0.1-0.8-0.3-1.4-0.6-2c-0.3-0.6-0.8-1-1.3-1.3c-0.7-0.3-2.7-0.7-5.8-1.3l-0.1-1c2.8-0.1,4.7-0.2,5.9-0.4c1.2-0.1,2.1-0.2,2.6-0.3
		c0.6-0.1,1.1-0.2,1.4-0.4c0.3-0.2,0.6-0.4,0.9-0.8c0.7-0.9,1.5-0.7,1.5-5.3c0.3-5.1,0.6-11.1,0-15.1c-1.3-3.4-5.6-4.2-11.9-2.6"/>
	<path d="M130.4,50.6c-0.3-1.9-0.8-4-1.6-6.2c-0.8-2.3-1.9-4.6-3.5-6.8s-3.4-4.2-5.7-5.9L120,31c5.1,2,8.9,4.3,11.2,7.1
		c2.3,2.7,3.6,5.3,3.9,7.7s-0.1,4.1-1.1,5.2C133.1,52,131.9,51.9,130.4,50.6z"/>
</g>
<g id="item04">
	<path d="M153.7,66.2c5.1-1.6,7.7-4.8,7.7-11c0-3.6-0.7-5.3-2.2-7.5c-0.6-0.9-1.4-1.6-2.6-2.1s-2.5-0.8-3.9-0.8
		c-1.5,0-2.9,0.4-4.3,1.1c-1.3,0.8-2.4,1.7-3.1,2.9c-1.7,2.9-2.5,6-2.3,9.4c0.1,1.8,0.3,3.4,0.8,4.9c0.5,1.5,1.3,2.2,2.3,2.2
		c1.5,0,2.6-1.5,3.4-4.4s1.2-7.5,1.3-13.9l4.4-1.4c-0.1,1-0.7,1.5-1.6,1.6c-0.2,4.6-0.4,9.5-1,12.1c-0.6,2.7-1.4,4.5-2.5,5.7
		c-1.1,1.1-2.4,1.7-3.9,1.6c-1.5,0.1-2.9-0.8-4.1-2.6c-1.3-1.9-2-4.2-2-6.9c0-2.8,0.6-5.2,1.8-7.3c1.2-2.1,2.8-3.7,4.6-4.8
		c1.9-1.1,3.8-1.7,5.8-1.7c2.5,0,4.6,0.5,6.5,1.5s3.3,2.5,4.3,4.4c1,1.9,1.5,3,1.5,5.6c0,7-3.6,10.6-10.9,12.2L153.7,66.2z"/>
</g>
<g id="item05">
	<path d="M219.9,3.4L215.2,0c-0.9,0.8-1.8,1.4-2.6,2.4C200,5.3,195,7.1,186.5,8.8l-5.3-2.3v24.1h0.8c1,0,1.9-0.2,2.8-0.6
		c-1.2,3.4-2.8,6.5-4.8,9.6s-3.9,5.5-6,7.5l0.7,0.7c4-2.2,7.5-5.2,10.7-9.1l1.4-1.8c1-1.4,1.9-2.8,2.7-4.2c0.6,0.1,1,0,1.4-0.2
		c0.4-0.2,0.7-0.5,0.8-0.8l-5.7-2.5c0.1-0.1,0.1-0.1,0.1-0.2v-1.6l26.5-6v2.5h0.8c0.7,0,1.6-0.2,2.6-0.5c1-0.4,1.5-0.7,1.6-0.9
		l-0.1-17.7C218.7,4.6,219.5,4,219.9,3.4z M212.6,19.6l-26.5,5.9V11l26.5-6.6V19.6z"/>
	<path d="M197.1,56.9v-8.9V36.8V27l7.2-1.3c-0.1,0.5-0.2,1.3-0.6,1.6c-0.3,0.3-0.9,1-1.6,1.1v8.3v11.2v8L197.1,56.9z"/>
	<polyline points="196.4,39.4 185.4,41.8 184.7,40.2 196.3,37.7 	"/>
	<path d="M203.2,36.6l11.5-2.6l2.1-4.5c2.7,1.3,4.9,2.4,6.4,3.4c0,0.7-0.5,1.1-1.4,1.3l-18.6,4.1"/>
	<polyline points="196,48.3 179.7,51.9 178.9,50.3 196,46.6 	"/>
	<path d="M203,45.7l10.5-2.6l1.9-4.5c2.8,1.3,4.9,2.4,6.5,3.3c0,0.7-0.4,1.1-1.4,1.3L203,47.4"/>
	<path d="M202.2,57.5l15.3-2.9l2.3-4.7c2.9,1.5,5.1,2.8,6.6,3.8c0,0.6-0.5,1-1.4,1.2l-52,10l-0.8-1.6l25.2-4.8"/>
	<line class="st0" x1="197.1" y1="46.2" x2="197.1" y2="38.6"/>
	<line class="st0" x1="202.1" y1="38.6" x2="202.1" y2="46.2"/>
	<polygon points="200.5,12.2 203.6,10.9 202.1,13.9 205.2,15.1 202,16.1 203.3,19.2 200.3,17.6 199.1,20.8 198.1,17.6 195,18.9 
		196.5,15.9 193.4,14.7 196.6,13.7 195.3,10.6 198.3,12.1 199.5,9 	"/>
</g>
</svg>
